<?xml version="1.0" encoding="UTF-8" standalone="no"?>
<!-- Created with Inkscape (http://www.inkscape.org/) -->

<svg
   xmlns:osb="http://www.openswatchbook.org/uri/2009/osb"
   xmlns:dc="http://purl.org/dc/elements/1.1/"
   xmlns:cc="http://creativecommons.org/ns#"
   xmlns:rdf="http://www.w3.org/1999/02/22-rdf-syntax-ns#"
   xmlns:svg="http://www.w3.org/2000/svg"
   xmlns="http://www.w3.org/2000/svg"
   xmlns:xlink="http://www.w3.org/1999/xlink"
   xmlns:sodipodi="http://sodipodi.sourceforge.net/DTD/sodipodi-0.dtd"
   xmlns:inkscape="http://www.inkscape.org/namespaces/inkscape"
   width="3366.1416"
   height="559.84253"
   id="svg2"
   version="1.1"
   inkscape:version="0.48.4 r9939"
   sodipodi:docname="basis_layout_overall.svg">
  <defs
     id="defs4">
    <marker
       inkscape:stockid="Arrow2Mstart"
       orient="auto"
       refY="0"
       refX="0"
       id="Arrow2Mstart"
       style="overflow:visible">
      <path
         id="path10517"
         style="fill-rule:evenodd;stroke-width:0.625;stroke-linejoin:round"
         d="M 8.7185878,4.0337352 -2.2072895,0.01601326 8.7185884,-4.0017078 c -1.7454984,2.3720609 -1.7354408,5.6174519 -6e-7,8.035443 z"
         transform="scale(0.6,0.6)"
         inkscape:connector-curvature="0" />
    </marker>
    <marker
       inkscape:stockid="Arrow1Mstart"
       orient="auto"
       refY="0"
       refX="0"
       id="Arrow1Mstart"
       style="overflow:visible">
      <path
         id="path10499"
         d="M 0,0 5,-5 -12.5,0 5,5 0,0 z"
         style="fill-rule:evenodd;stroke:#000000;stroke-width:1pt"
         transform="matrix(0.4,0,0,0.4,4,0)"
         inkscape:connector-curvature="0" />
    </marker>
    <marker
       inkscape:stockid="DotS"
       orient="auto"
       refY="0"
       refX="0"
       id="DotS"
       style="overflow:visible">
      <path
         id="path10560"
         d="m -2.5,-1 c 0,2.76 -2.24,5 -5,5 -2.76,0 -5,-2.24 -5,-5 0,-2.76 2.24,-5 5,-5 2.76,0 5,2.24 5,5 z"
         style="fill-rule:evenodd;stroke:#000000;stroke-width:1pt"
         transform="matrix(0.2,0,0,0.2,1.48,0.2)"
         inkscape:connector-curvature="0" />
    </marker>
    <inkscape:path-effect
       effect="ruler"
       id="path-effect9221"
       is_visible="true"
       unit="px"
       mark_distance="20"
       mark_length="14"
       minor_mark_length="7"
       major_mark_steps="5"
       shift="0"
       offset="0"
       mark_dir="both"
       border_marks="both" />
    <inkscape:path-effect
       effect="ruler"
       id="path-effect9217"
       is_visible="true"
       unit="px"
       mark_distance="20"
       mark_length="14"
       minor_mark_length="7"
       major_mark_steps="5"
       shift="0"
       offset="0"
       mark_dir="left"
       border_marks="both" />
    <inkscape:path-effect
       effect="rough_hatches"
       id="path-effect9215"
       is_visible="true"
       direction="2333.9694,886.5747 , 1.1590333,0"
       dist_rdm="73.6;1"
       growth="0"
       do_bend="true"
       bender="2333.9694,891.5747 , 5,0"
       bottom_edge_variation="167.2;1"
       top_edge_variation="167.2;1"
       bottom_tgt_variation="0;1"
       top_tgt_variation="0;1"
       scale_bf="1"
       scale_bb="1"
       scale_tf="1"
       scale_tb="1"
       top_smth_variation="0;1"
       bottom_smth_variation="0;1"
       fat_output="true"
       stroke_width_top="1"
       stroke_width_bottom="1"
       front_thickness="1"
       back_thickness="0.25" />
    <linearGradient
       inkscape:collect="always"
       id="linearGradient6427">
      <stop
         style="stop-color:#cccccc;stop-opacity:1;"
         offset="0"
         id="stop6429" />
      <stop
         style="stop-color:#cccccc;stop-opacity:0;"
         offset="1"
         id="stop6431" />
    </linearGradient>
    <linearGradient
       id="linearGradient6103"
       osb:paint="solid">
      <stop
         style="stop-color:#897dff;stop-opacity:1;"
         offset="0"
         id="stop6105" />
    </linearGradient>
    <marker
       inkscape:stockid="Arrow1Lstart"
       orient="auto"
       refY="0"
       refX="0"
       id="Arrow1Lstart"
       style="overflow:visible">
      <path
         id="path5469"
         d="M 0,0 5,-5 -12.5,0 5,5 0,0 z"
         style="fill-rule:evenodd;stroke:#000000;stroke-width:1pt"
         transform="matrix(0.8,0,0,0.8,10,0)"
         inkscape:connector-curvature="0" />
    </marker>
    <linearGradient
       id="linearGradient5411"
       osb:paint="gradient">
      <stop
         style="stop-color:#ffffff;stop-opacity:1;"
         offset="0"
         id="stop5413" />
      <stop
         id="stop5419"
         offset="0.5"
         style="stop-color:#ffffff;stop-opacity:0.49803922;" />
      <stop
         style="stop-color:#ffffff;stop-opacity:0;"
         offset="1"
         id="stop5415" />
    </linearGradient>
    <linearGradient
       id="linearGradient5375">
      <stop
         style="stop-color:#b4de21;stop-opacity:1;"
         offset="0"
         id="stop5377" />
      <stop
         style="stop-color:#77ded3;stop-opacity:0;"
         offset="1"
         id="stop5379" />
    </linearGradient>
    <linearGradient
       id="linearGradient5321">
      <stop
         style="stop-color:#000000;stop-opacity:1;"
         offset="0"
         id="stop5323" />
      <stop
         style="stop-color:#000000;stop-opacity:0;"
         offset="1"
         id="stop5325" />
    </linearGradient>
    <linearGradient
       id="linearGradient5313"
       osb:paint="solid">
      <stop
         style="stop-color:#000000;stop-opacity:1;"
         offset="0"
         id="stop5315" />
    </linearGradient>
    <linearGradient
       id="linearGradient5299"
       osb:paint="solid">
      <stop
         style="stop-color:#7b00d7;stop-opacity:1;"
         offset="0"
         id="stop5301" />
    </linearGradient>
    <linearGradient
       id="linearGradient3019">
      <stop
         style="stop-color:#f1cc63;stop-opacity:1;"
         offset="0"
         id="stop3021" />
      <stop
         style="stop-color:#ffe6d5;stop-opacity:0;"
         offset="1"
         id="stop3023" />
    </linearGradient>
    <linearGradient
       inkscape:collect="always"
       xlink:href="#linearGradient6427"
       id="linearGradient6529"
       x1="212.12254"
       y1="282.27817"
       x2="985.81793"
       y2="282.27817"
       gradientUnits="userSpaceOnUse"
       gradientTransform="matrix(1.2994743,0,0,2.3850187,-203.2567,-946.32251)" />
    <linearGradient
       inkscape:collect="always"
       xlink:href="#linearGradient6427"
       id="linearGradient6537"
       x1="-313.32211"
       y1="366.34015"
       x2="324.49045"
       y2="366.34015"
       gradientUnits="userSpaceOnUse"
       gradientTransform="matrix(1.2994743,0,0,2.3850187,-203.2567,-946.32251)" />
    <linearGradient
       inkscape:collect="always"
       xlink:href="#linearGradient6427"
       id="linearGradient6553"
       x1="-169.18456"
       y1="1116.8373"
       x2="839.72589"
       y2="1116.8373"
       gradientUnits="userSpaceOnUse"
       gradientTransform="matrix(1.2994743,0,0,2.3850187,-203.2567,-946.32251)" />
    <linearGradient
       inkscape:collect="always"
       xlink:href="#linearGradient5321"
       id="linearGradient6621"
       x1="-203.35715"
       y1="608.36334"
       x2="65.654839"
       y2="608.36334"
       gradientUnits="userSpaceOnUse"
       gradientTransform="matrix(1.2994743,0,0,2.3850187,-349.47805,-474.76095)" />
    <linearGradient
       inkscape:collect="always"
       xlink:href="#linearGradient5321"
       id="linearGradient6700"
       x1="-216.21429"
       y1="1103.3163"
       x2="0.5"
       y2="1103.3163"
       gradientUnits="userSpaceOnUse"
       gradientTransform="matrix(1.2994743,0,0,1.5964121,-349.47805,-21.27932)" />
    <marker
       inkscape:stockid="Arrow2Mend"
       orient="auto"
       refY="0"
       refX="0"
       id="Arrow2Mend"
       style="overflow:visible">
      <path
         inkscape:connector-curvature="0"
         id="path4914"
         style="fill-rule:evenodd;stroke-width:0.625;stroke-linejoin:round"
         d="M 8.7185878,4.0337352 -2.2072895,0.01601326 8.7185884,-4.0017078 c -1.7454984,2.3720609 -1.7354408,5.6174519 -6e-7,8.035443 z"
         transform="scale(-0.6,-0.6)" />
    </marker>
    <marker
       inkscape:stockid="Arrow2Mend"
       orient="auto"
       refY="0"
       refX="0"
       id="Arrow2Mend-3"
       style="overflow:visible">
      <path
         inkscape:connector-curvature="0"
         id="path4914-7"
         style="fill-rule:evenodd;stroke-width:0.625;stroke-linejoin:round"
         d="M 8.7185878,4.0337352 -2.2072895,0.01601326 8.7185884,-4.0017078 c -1.7454984,2.3720609 -1.7354408,5.6174519 -6e-7,8.035443 z"
         transform="scale(-0.6,-0.6)" />
    </marker>
    <marker
       inkscape:stockid="DotS"
       orient="auto"
       refY="0"
       refX="0"
       id="DotS-2"
       style="overflow:visible">
      <path
         id="path10560-6"
         d="m -2.5,-1 c 0,2.76 -2.24,5 -5,5 -2.76,0 -5,-2.24 -5,-5 0,-2.76 2.24,-5 5,-5 2.76,0 5,2.24 5,5 z"
         style="fill-rule:evenodd;stroke:#000000;stroke-width:1pt"
         transform="matrix(0.2,0,0,0.2,1.48,0.2)"
         inkscape:connector-curvature="0" />
    </marker>
    <inkscape:path-effect
       effect="ruler"
       id="path-effect9221-1"
       is_visible="true"
       unit="px"
       mark_distance="20"
       mark_length="14"
       minor_mark_length="7"
       major_mark_steps="5"
       shift="0"
       offset="0"
       mark_dir="both"
       border_marks="both" />
    <marker
       inkscape:stockid="DotS"
       orient="auto"
       refY="0"
       refX="0"
       id="DotS-6"
       style="overflow:visible">
      <path
         id="path10560-8"
         d="m -2.5,-1 c 0,2.76 -2.24,5 -5,5 -2.76,0 -5,-2.24 -5,-5 0,-2.76 2.24,-5 5,-5 2.76,0 5,2.24 5,5 z"
         style="fill-rule:evenodd;stroke:#000000;stroke-width:1pt"
         transform="matrix(0.2,0,0,0.2,1.48,0.2)"
         inkscape:connector-curvature="0" />
    </marker>
    <inkscape:path-effect
       effect="ruler"
       id="path-effect9221-7"
       is_visible="true"
       unit="px"
       mark_distance="20"
       mark_length="38"
       minor_mark_length="7"
       major_mark_steps="5"
       shift="0"
       offset="0"
       mark_dir="both"
       border_marks="both" />
    <marker
       inkscape:stockid="DotS"
       orient="auto"
       refY="0"
       refX="0"
       id="marker6806"
       style="overflow:visible">
      <path
         id="path6808"
         d="m -2.5,-1 c 0,2.76 -2.24,5 -5,5 -2.76,0 -5,-2.24 -5,-5 0,-2.76 2.24,-5 5,-5 2.76,0 5,2.24 5,5 z"
         style="fill-rule:evenodd;stroke:#000000;stroke-width:1pt"
         transform="matrix(0.2,0,0,0.2,1.48,0.2)"
         inkscape:connector-curvature="0" />
    </marker>
    <inkscape:path-effect
       effect="ruler"
       id="path-effect9221-1-8"
       is_visible="true"
       unit="px"
       mark_distance="20"
       mark_length="14"
       minor_mark_length="7"
       major_mark_steps="5"
       shift="0"
       offset="0"
       mark_dir="both"
       border_marks="both" />
    <marker
       inkscape:stockid="DotS"
       orient="auto"
       refY="0"
       refX="0"
       id="DotS-66"
       style="overflow:visible">
      <path
         id="path10560-9"
         d="m -2.5,-1 c 0,2.76 -2.24,5 -5,5 -2.76,0 -5,-2.24 -5,-5 0,-2.76 2.24,-5 5,-5 2.76,0 5,2.24 5,5 z"
         style="fill-rule:evenodd;stroke:#000000;stroke-width:1pt"
         transform="matrix(0.2,0,0,0.2,1.48,0.2)"
         inkscape:connector-curvature="0" />
    </marker>
    <inkscape:path-effect
       effect="ruler"
       id="path-effect9221-7-6"
       is_visible="true"
       unit="px"
       mark_distance="20"
       mark_length="72"
       minor_mark_length="7"
       major_mark_steps="3"
       shift="0"
       offset="0"
       mark_dir="both"
       border_marks="both" />
    <marker
       inkscape:stockid="DotS"
       orient="auto"
       refY="0"
       refX="0"
       id="DotS-67"
       style="overflow:visible">
      <path
         id="path10560-1"
         d="m -2.5,-1 c 0,2.76 -2.24,5 -5,5 -2.76,0 -5,-2.24 -5,-5 0,-2.76 2.24,-5 5,-5 2.76,0 5,2.24 5,5 z"
         style="fill-rule:evenodd;stroke:#000000;stroke-width:1pt"
         transform="matrix(0.2,0,0,0.2,1.48,0.2)"
         inkscape:connector-curvature="0" />
    </marker>
    <inkscape:path-effect
       effect="ruler"
       id="path-effect9221-7-6-2"
       is_visible="true"
       unit="px"
       mark_distance="20"
       mark_length="38"
       minor_mark_length="7"
       major_mark_steps="5"
       shift="0"
       offset="0"
       mark_dir="both"
       border_marks="both" />
    <marker
       inkscape:stockid="DotS"
       orient="auto"
       refY="0"
       refX="0"
       id="DotS-7"
       style="overflow:visible">
      <path
         id="path10560-80"
         d="m -2.5,-1 c 0,2.76 -2.24,5 -5,5 -2.76,0 -5,-2.24 -5,-5 0,-2.76 2.24,-5 5,-5 2.76,0 5,2.24 5,5 z"
         style="fill-rule:evenodd;stroke:#000000;stroke-width:1pt"
         transform="matrix(0.2,0,0,0.2,1.48,0.2)"
         inkscape:connector-curvature="0" />
    </marker>
    <inkscape:path-effect
       effect="ruler"
       id="path-effect9221-7-6-8"
       is_visible="true"
       unit="px"
       mark_distance="20"
       mark_length="72"
       minor_mark_length="7"
       major_mark_steps="10"
       shift="0"
       offset="0"
       mark_dir="both"
       border_marks="both" />
    <filter
       id="filter8725"
       inkscape:label="filter1" />
  </defs>
  <sodipodi:namedview
     id="base"
     pagecolor="#ffffff"
     bordercolor="#666666"
     borderopacity="1.0"
     inkscape:pageopacity="0.0"
     inkscape:pageshadow="2"
     inkscape:zoom="1.4142136"
     inkscape:cx="1466.7713"
     inkscape:cy="331.08741"
     inkscape:document-units="px"
     inkscape:current-layer="layer1"
     showgrid="false"
     inkscape:window-width="1366"
     inkscape:window-height="757"
     inkscape:window-x="0"
     inkscape:window-y="0"
     inkscape:window-maximized="1"
     showguides="true"
     inkscape:guide-bbox="true"
     fit-margin-top="-0.1"
     fit-margin-left="0.3"
     fit-margin-right="0"
     fit-margin-bottom="0"
     units="cm"
     width="79.4cm" />
  <metadata
     id="metadata7">
    <rdf:RDF>
      <cc:Work
         rdf:about="">
        <dc:format>image/svg+xml</dc:format>
        <dc:type
           rdf:resource="http://purl.org/dc/dcmitype/StillImage" />
        <dc:title />
      </cc:Work>
    </rdf:RDF>
  </metadata>
  <g
     inkscape:label="Layer 1"
     inkscape:groupmode="layer"
     id="layer1"
     transform="translate(339.36768,-1150.4723)">
    <text
       xml:space="preserve"
       style="font-size:100.05656433px;font-style:normal;font-weight:normal;line-height:125%;letter-spacing:0px;word-spacing:0px;fill:#c50000;fill-opacity:1;stroke:none;font-family:Sans"
       x="1380.5765"
       y="1492.29"
       id="text3385-9"
       sodipodi:linespacing="125%"><tspan
         sodipodi:role="line"
         id="tspan3387-3"
         x="1380.5765"
         y="1492.29" /></text>
    <text
       xml:space="preserve"
       style="font-size:144px;font-style:normal;font-weight:normal;line-height:125%;letter-spacing:0px;word-spacing:0px;fill:#000000;fill-opacity:1;stroke:none;font-family:Sans"
       x="2694.3347"
       y="1310.9746"
       id="text9175"
       sodipodi:linespacing="125%"><tspan
         sodipodi:role="line"
         id="tspan9177"
         x="2694.3347"
         y="1310.9746" /></text>
    <text
       xml:space="preserve"
       style="font-size:72px;font-style:normal;font-weight:normal;line-height:125%;letter-spacing:0px;word-spacing:0px;fill:#000000;fill-opacity:1;stroke:none;font-family:Sans"
       x="2754.3347"
       y="1278.9746"
       id="text9179"
       sodipodi:linespacing="125%"><tspan
         sodipodi:role="line"
         id="tspan9181"
         x="2754.3347"
         y="1278.9746" /></text>
    <text
       xml:space="preserve"
       style="font-size:144px;font-style:normal;font-weight:normal;line-height:125%;letter-spacing:0px;word-spacing:0px;fill:#000000;fill-opacity:1;stroke:none;font-family:Sans"
       x="1206.5439"
       y="1521.7314"
       id="text10466"
       sodipodi:linespacing="125%"><tspan
         sodipodi:role="line"
         id="tspan10468"
         x="1206.5439"
         y="1521.7314" /></text>
    <text
       xml:space="preserve"
       style="font-size:144px;font-style:normal;font-weight:normal;line-height:125%;letter-spacing:0px;word-spacing:0px;fill:#00702a;fill-opacity:1;stroke:none;font-family:Sans"
       x="49.427174"
       y="1389.1979"
       id="text10958"
       sodipodi:linespacing="125%"><tspan
         sodipodi:role="line"
         id="tspan10960"
         x="49.427174"
         y="1389.1979">interiors</tspan></text>
    <path
       style="fill:#c50000;fill-opacity:1;stroke:#00702a;stroke-width:5.5999999;stroke-miterlimit:4;stroke-opacity:1;stroke-dasharray:none;marker-start:none;marker-mid:url(#DotS)"
       d="m 980.26505,1508.9491 -1201.42421,2.0702 m 1201.36218,-38.0701 0.12406,71.9998 m -20.06803,-39.4654 0.0121,7 m -20.01203,-6.9656 0.0121,7 m -20.01203,-6.9655 0.0121,7 m -20.01203,-6.9655 0.0121,6.9999 m -20.01203,-6.9655 0.0121,7 m -20.01203,-6.9655 0.0121,7 m -20.01203,-6.9656 0.0121,7 m -20.01203,-6.9655 0.0121,7 m -20.01203,-6.9655 0.0121,7 m -20.06804,-39.4655 0.12407,71.9999 m -20.06803,-39.4655 0.0121,7 m -20.01203,-6.9655 0.0121,6.9999 m -20.01203,-6.9655 0.0121,7 m -20.01204,-6.9655 0.0121,7 m -20.01204,-6.9656 0.0121,7 m -20.01204,-6.9655 0.0121,7 m -20.01204,-6.9655 0.0121,7 m -20.01204,-6.9656 0.0121,7 m -20.01204,-6.9655 0.0121,7 m -20.06804,-39.4655 0.12407,71.9999 m -20.06804,-39.4655 0.0121,7 m -20.01203,-6.9655 0.0121,7 m -20.01203,-6.9656 0.0121,7 m -20.01203,-6.9655 0.0121,7 m -20.01203,-6.9655 0.0121,7 m -20.01203,-6.9656 0.0121,7 m -20.01203,-6.9655 0.0121,7 m -20.01203,-6.9655 0.0121,6.9999 m -20.01203,-6.9655 0.0121,7 m -20.06803,-39.4655 0.12406,71.9999 m -20.06803,-39.4655 0.0121,7 m -20.01203,-6.9655 0.0121,7 m -20.01203,-6.9655 0.0121,7 m -20.01203,-6.9656 0.0121,7 m -20.01203,-6.9655 0.0121,7 m -20.01203,-6.9655 0.0121,6.9999 m -20.01203,-6.9655 0.0121,7 m -20.01203,-6.9655 0.0121,7 m -20.01203,-6.9656 0.0121,7 m -20.06803,-39.4655 0.12406,71.9999 m -20.06803,-39.4654 0.0121,7 m -20.01203,-6.9656 0.0121,7 m -20.01203,-6.9655 0.0121,7 m -20.01203,-6.9656 0.0121,7 m -20.012035,-6.9655 0.01206,7 m -20.012032,-6.9655 0.01206,7 m -20.012032,-6.9656 0.01206,7 m -20.012032,-6.9655 0.01206,7 m -20.01203204,-6.9655 0.0120618,7 m -20.0680338,-39.4655 0.124065,71.9999 m -20.068034,-39.4655 0.01206,7 m -20.012032,-6.9656 0.01206,7 m -20.012032,-6.9655 0.01206,7 m -20.012033,-6.9655 0.01206,7 m -20.012034,-6.9656 0.0121,7 m -20.01203,-6.9655 0.0121,7 m -20.01203,-6.9655 0.0121,7 m -20.01203,-6.9656 0.0121,7 m -20.01203,-6.9655 0.0121,7 m -20.06803,-39.4655 0.12406,71.9999 m -1.55005,-71.9974 0.12406,71.9998"
       id="path9219-4-5"
       inkscape:connector-curvature="0"
       inkscape:path-effect="#path-effect9221-7-6-8"
       inkscape:original-d="m 980.26505,1508.9491 -1201.42421,2.0702"
       sodipodi:nodetypes="cc" />
    <text
       xml:space="preserve"
       style="font-size:144px;font-style:normal;font-weight:normal;line-height:125%;letter-spacing:0px;word-spacing:0px;fill:#000000;fill-opacity:1;stroke:none;font-family:Sans"
       x="588.35638"
       y="1158.7371"
       id="text8637"
       sodipodi:linespacing="125%"><tspan
         sodipodi:role="line"
         id="tspan8639"
         x="588.35638"
         y="1158.7371" /></text>
    <path
       style="fill:#ffff00;fill-opacity:1;stroke:#c50000;stroke-width:5.60039568;stroke-miterlimit:4;stroke-opacity:1;stroke-dasharray:none;marker-start:none;marker-mid:url(#DotS)"
       d="m 2900.8755,1504.9875 -1920.3888,2.0702 m 1920.35,-38.0702 0.078,72 m -20.0426,-39.4784 0.01,7 m -20.0075,-6.9785 0.01,7 m -20.0426,-39.4784 0.078,72 m -20.0425,-39.4785 0.01,7 m -20.0075,-6.9784 0.01,7 m -20.0425,-39.4784 0.078,71.9999 m -20.0426,-39.4784 0.01,7 m -20.0076,-6.9784 0.01,7 m -20.0426,-39.4784 0.078,71.9999 m -20.0426,-39.4784 0.01,7 m -20.0075,-6.9784 0.01,7 m -20.0426,-39.4785 0.078,72 m -20.0425,-39.4784 0.01,7 m -20.0075,-6.9785 0.01,7 m -20.0425,-39.4784 0.078,72 m -20.0426,-39.4784 0.01,7 m -20.0076,-6.9785 0.01,7 m -20.0426,-39.4784 0.078,72 m -20.0426,-39.4785 0.01,7 m -20.0075,-6.9784 0.01,7 m -20.0426,-39.4784 0.078,71.9999 m -20.0426,-39.4784 0.01,7 m -20.0075,-6.9784 0.01,7 m -20.0425,-39.4784 0.078,71.9999 m -20.0426,-39.4784 0.01,7 m -20.0076,-6.9784 0.01,7 m -20.0426,-39.4785 0.078,72 m -20.0425,-39.4784 0.01,7 m -20.0075,-6.9785 0.01,7 m -20.0426,-39.4784 0.078,72 m -20.0426,-39.4784 0.01,7 m -20.0075,-6.9785 0.01,7 m -20.0425,-39.4784 0.078,72 m -20.0426,-39.4785 0.01,7 m -20.0076,-6.9784 0.01,7 m -20.0426,-39.4784 0.078,71.9999 m -20.0425,-39.4784 0.01,7 m -20.0075,-6.9784 0.01,7 m -20.0426,-39.4784 0.078,71.9999 m -20.0426,-39.4784 0.01,7 m -20.0075,-6.9784 0.01,7 m -20.0425,-39.4785 0.078,72 m -20.0426,-39.4784 0.01,7 m -20.0076,-6.9784 0.01,6.9999 m -20.0426,-39.4784 0.078,72 m -20.0425,-39.4784 0.01,7 m -20.0075,-6.9785 0.01,7 m -20.0426,-39.4784 0.078,72 m -20.0426,-39.4784 0.01,6.9999 m -20.0075,-6.9784 0.01,7 m -20.0426,-39.4784 0.078,71.9999 m -20.0426,-39.4784 0.01,7 m -20.0076,-6.9784 0.01,7 m -20.0426,-39.4784 0.078,71.9999 m -20.0425,-39.4784 0.01,7 m -20.0075,-6.9784 0.01,7 m -20.0425,-39.4784 0.078,71.9999 m -20.0426,-39.4784 0.01,7 m -20.0075,-6.9784 0.01,7 m -20.0426,-39.4785 0.078,72 m -20.0426,-39.4784 0.01,7 m -20.0076,-6.9785 0.01,7 m -20.0426,-39.4784 0.078,72 m -20.0425,-39.4784 0.01,7 m -20.0075,-6.9785 0.01,7 m -20.0425,-39.4784 0.078,72 m -20.0426,-39.4785 0.01,7 m -20.0076,-6.9784 0.01,7 m -20.0426,-39.4784 0.078,71.9999 m -20.0426,-39.4784 0.01,7 m -20.0075,-6.9784 0.01,7 m -20.0426,-39.4784 0.078,71.9999 m -20.0425,-39.4784 0.01,7 m -20.0075,-6.9784 0.01,7 m -20.0425,-39.4785 0.078,72 m -20.0426,-39.4784 0.01,7 m -20.0076,-6.9785 0.01,7 m -20.0426,-39.4784 0.078,72 m -20.0426,-39.4784 0.01,7 m -20.0075,-6.9785 0.01,7 m -20.0426,-39.4784 0.078,72 m -20.0425,-39.4785 0.01,7 m -20.0075,-6.9784 0.01,7 m -20.0425,-39.4784 0.078,71.9999 m -20.0426,-39.4784 0.01,7 m -20.0076,-6.9784 0.01,7 m -20.0426,-39.4784 0.078,71.9999 m -20.0426,-39.4784 0.01,7 m -20.0075,-6.9784 0.01,7 m -20.0426,-39.4785 0.078,72 m -20.0426,-39.4784 0.01,7 m -20.0075,-6.9785 0.01,7 m -20.0425,-39.4784 0.078,72 m -20.0426,-39.4784 0.01,7 m -20.0076,-6.9785 0.01,7 m -20.04259,-39.4784 0.0776,72 m -0.46753,-71.9996 0.0776,72"
       id="path9219-4"
       inkscape:connector-curvature="0"
       inkscape:path-effect="#path-effect9221-7-6"
       inkscape:original-d="m 2900.8755,1504.9875 -1920.3888,2.0702"
       sodipodi:nodetypes="cc" />
    <text
       xml:space="preserve"
       style="font-size:144px;font-style:normal;font-weight:normal;line-height:125%;letter-spacing:0px;word-spacing:0px;fill:#c50000;fill-opacity:1;stroke:none;font-family:Sans"
       x="1231.619"
       y="1386.1852"
       id="text10958-3"
       sodipodi:linespacing="125%"><tspan
         sodipodi:role="line"
         id="tspan10960-7"
         x="1231.619"
         y="1386.1852">non-boundary sides</tspan></text>
    <path
       style="fill:none;stroke:#000000;stroke-width:4.5999999;stroke-linecap:butt;stroke-linejoin:miter;stroke-miterlimit:4;stroke-opacity:1;stroke-dasharray:13.80000003, 13.80000003;stroke-dashoffset:0"
       d="m 980.59067,1280.859 c 0,63.6634 0,77.9877 0,141.6511 0,9.019 0,18.0379 0,27.0569 0,3.1832 0,6.3663 0,9.5495 0,0.5306 0.6666,1.5916 0,1.5916 -0.6667,0 0,-1.061 0,-1.5916 0,-1.5916 0,-3.1832 0,-4.7747 0,-1.5916 0,-3.1832 0,-4.7748 0,-0.5305 -0.6667,-1.5916 0,-1.5916 0.6666,0 0,1.0611 0,1.5916 0,2.1221 0,4.2443 0,6.3663 0,2.1222 0,4.2443 0,6.3664 0,0.5305 0,1.0611 0,1.5916 0,0.5305 0.6666,1.5916 0,1.5916 -0.6667,0 0,-1.0611 0,-1.5916 0,-0.5305 0,-29.7592 0,-1.5916 0,2.122 0,-4.2442 0,-6.3664 0,-5.8357 0,-11.6715 0,-17.5074 0,-7.4274 0,-14.8547 0,-22.2822 0,-1.5916 0,-3.1831 0,-4.7747 0,-0.5305 -0.6667,-1.5916 0,-1.5916 0.6666,0 0,1.0611 0,1.5916 0,1.0611 0,2.1221 0,3.1831 0,2.6527 0,5.3053 0,7.958 0,13.2632 0,-13.426 0,-0.1629"
       id="path8616"
       inkscape:connector-curvature="0"
       sodipodi:nodetypes="csssssssssssssssssssssssc" />
  </g>
</svg>
