<?xml version="1.0" encoding="UTF-8" standalone="no"?>
<!-- Created with Inkscape (http://www.inkscape.org/) -->

<svg
   xmlns:osb="http://www.openswatchbook.org/uri/2009/osb"
   xmlns:dc="http://purl.org/dc/elements/1.1/"
   xmlns:cc="http://creativecommons.org/ns#"
   xmlns:rdf="http://www.w3.org/1999/02/22-rdf-syntax-ns#"
   xmlns:svg="http://www.w3.org/2000/svg"
   xmlns="http://www.w3.org/2000/svg"
   xmlns:xlink="http://www.w3.org/1999/xlink"
   xmlns:sodipodi="http://sodipodi.sourceforge.net/DTD/sodipodi-0.dtd"
   xmlns:inkscape="http://www.inkscape.org/namespaces/inkscape"
   width="2090.551"
   height="1240.1575"
   id="svg2"
   version="1.1"
   inkscape:version="0.48.4 r9939"
   sodipodi:docname="int_bel_bside_interaction.svg">
  <sodipodi:namedview
     id="base"
     pagecolor="#ffffff"
     bordercolor="#666666"
     borderopacity="1.0"
     inkscape:pageopacity="0.0"
     inkscape:pageshadow="2"
     inkscape:zoom="0.24748737"
     inkscape:cx="250.78569"
     inkscape:cy="646.38892"
     inkscape:document-units="px"
     inkscape:current-layer="layer1"
     showgrid="false"
     inkscape:window-width="1366"
     inkscape:window-height="757"
     inkscape:window-x="0"
     inkscape:window-y="0"
     inkscape:window-maximized="1"
     showguides="true"
     inkscape:guide-bbox="true"
     fit-margin-top="-0.1"
     fit-margin-left="0.3"
     fit-margin-right="0"
     fit-margin-bottom="0"
     units="cm"
     width="79.4cm" />
  <defs
     id="defs4">
    <linearGradient
       inkscape:collect="always"
       id="linearGradient6105">
      <stop
         style="stop-color:#ffffff;stop-opacity:1;"
         offset="0"
         id="stop6107" />
      <stop
         style="stop-color:#ffffff;stop-opacity:0;"
         offset="1"
         id="stop6109" />
    </linearGradient>
    <linearGradient
       inkscape:collect="always"
       id="linearGradient6427">
      <stop
         style="stop-color:#cccccc;stop-opacity:1;"
         offset="0"
         id="stop6429" />
      <stop
         style="stop-color:#cccccc;stop-opacity:0;"
         offset="1"
         id="stop6431" />
    </linearGradient>
    <linearGradient
       id="linearGradient6103"
       osb:paint="solid">
      <stop
         style="stop-color:#897dff;stop-opacity:1;"
         offset="0"
         id="stop6105" />
    </linearGradient>
    <marker
       inkscape:stockid="Arrow1Lstart"
       orient="auto"
       refY="0"
       refX="0"
       id="Arrow1Lstart"
       style="overflow:visible">
      <path
         id="path5469"
         d="M 0,0 5,-5 -12.5,0 5,5 0,0 z"
         style="fill-rule:evenodd;stroke:#000000;stroke-width:1pt"
         transform="matrix(0.8,0,0,0.8,10,0)"
         inkscape:connector-curvature="0" />
    </marker>
    <linearGradient
       id="linearGradient5411"
       osb:paint="gradient">
      <stop
         style="stop-color:#ffffff;stop-opacity:1;"
         offset="0"
         id="stop5413" />
      <stop
         id="stop5419"
         offset="0.5"
         style="stop-color:#ffffff;stop-opacity:0.49803922;" />
      <stop
         style="stop-color:#ffffff;stop-opacity:0;"
         offset="1"
         id="stop5415" />
    </linearGradient>
    <linearGradient
       id="linearGradient5375">
      <stop
         style="stop-color:#b4de21;stop-opacity:1;"
         offset="0"
         id="stop5377" />
      <stop
         style="stop-color:#77ded3;stop-opacity:0;"
         offset="1"
         id="stop5379" />
    </linearGradient>
    <linearGradient
       id="linearGradient5321">
      <stop
         style="stop-color:#000000;stop-opacity:1;"
         offset="0"
         id="stop5323" />
      <stop
         style="stop-color:#000000;stop-opacity:0;"
         offset="1"
         id="stop5325" />
    </linearGradient>
    <linearGradient
       id="linearGradient5313"
       osb:paint="solid">
      <stop
         style="stop-color:#000000;stop-opacity:1;"
         offset="0"
         id="stop5315" />
    </linearGradient>
    <linearGradient
       id="linearGradient5299"
       osb:paint="solid">
      <stop
         style="stop-color:#7b00d7;stop-opacity:1;"
         offset="0"
         id="stop5301" />
    </linearGradient>
    <linearGradient
       id="linearGradient3019">
      <stop
         style="stop-color:#f1cc63;stop-opacity:1;"
         offset="0"
         id="stop3021" />
      <stop
         style="stop-color:#ffe6d5;stop-opacity:0;"
         offset="1"
         id="stop3023" />
    </linearGradient>
    <filter
       inkscape:collect="always"
       id="filter6196"
       color-interpolation-filters="sRGB">
      <feGaussianBlur
         inkscape:collect="always"
         stdDeviation="17.06695"
         id="feGaussianBlur6198" />
    </filter>
    <linearGradient
       inkscape:collect="always"
       xlink:href="#linearGradient6427"
       id="linearGradient6513"
       x1="831.9248"
       y1="386.31488"
       x2="2274.2207"
       y2="386.31488"
       gradientUnits="userSpaceOnUse"
       gradientTransform="matrix(1.0922076,0,0,2.0046071,-226.43924,-551.28204)" />
    <linearGradient
       inkscape:collect="always"
       xlink:href="#linearGradient6427"
       id="linearGradient6529"
       x1="212.12254"
       y1="282.27817"
       x2="985.81793"
       y2="282.27817"
       gradientUnits="userSpaceOnUse"
       gradientTransform="matrix(1.0922076,0,0,2.0046071,-226.43924,-551.28204)" />
    <linearGradient
       inkscape:collect="always"
       xlink:href="#linearGradient6427"
       id="linearGradient6537"
       x1="-313.32211"
       y1="366.34015"
       x2="324.49045"
       y2="366.34015"
       gradientUnits="userSpaceOnUse"
       gradientTransform="matrix(1.0922076,0,0,2.0046071,-226.43924,-551.28204)" />
    <linearGradient
       inkscape:collect="always"
       xlink:href="#linearGradient6427"
       id="linearGradient6553"
       x1="-169.18456"
       y1="1116.8373"
       x2="839.72589"
       y2="1116.8373"
       gradientUnits="userSpaceOnUse"
       gradientTransform="matrix(1.0922076,0,0,2.0046071,-226.43924,-551.28204)" />
    <linearGradient
       inkscape:collect="always"
       xlink:href="#linearGradient5321"
       id="linearGradient6621"
       x1="-203.35715"
       y1="608.36334"
       x2="65.654839"
       y2="608.36334"
       gradientUnits="userSpaceOnUse"
       gradientTransform="matrix(1.0922076,0,0,2.0046071,-349.33822,-154.93458)" />
    <linearGradient
       inkscape:collect="always"
       xlink:href="#linearGradient5321"
       id="linearGradient6700"
       x1="-216.21429"
       y1="1103.3163"
       x2="0.5"
       y2="1103.3163"
       gradientUnits="userSpaceOnUse"
       gradientTransform="matrix(1.0922076,0,0,1.3417837,-349.33822,226.2165)" />
    <marker
       inkscape:stockid="Arrow2Mend"
       orient="auto"
       refY="0"
       refX="0"
       id="Arrow2Mend"
       style="overflow:visible">
      <path
         inkscape:connector-curvature="0"
         id="path6593"
         style="fill-rule:evenodd;stroke-width:0.625;stroke-linejoin:round"
         d="M 8.7185878,4.0337352 -2.2072895,0.01601326 8.7185884,-4.0017078 c -1.7454984,2.3720609 -1.7354408,5.6174519 -6e-7,8.035443 z"
         transform="scale(-0.6,-0.6)" />
    </marker>
    <marker
       inkscape:stockid="Arrow2Mend"
       orient="auto"
       refY="0"
       refX="0"
       id="Arrow2Mend-7"
       style="overflow:visible">
      <path
         inkscape:connector-curvature="0"
         id="path6593-2"
         style="fill-rule:evenodd;stroke-width:0.625;stroke-linejoin:round"
         d="M 8.7185878,4.0337352 -2.2072895,0.01601326 8.7185884,-4.0017078 c -1.7454984,2.3720609 -1.7354408,5.6174519 -6e-7,8.035443 z"
         transform="scale(-0.6,-0.6)" />
    </marker>
    <linearGradient
       inkscape:collect="always"
       xlink:href="#linearGradient6105"
       id="linearGradient6113"
       x1="1080.0319"
       y1="920.38995"
       x2="2443.8364"
       y2="920.38995"
       gradientUnits="userSpaceOnUse" />
  </defs>
  <metadata
     id="metadata7">
    <rdf:RDF>
      <cc:Work
         rdf:about="">
        <dc:format>image/svg+xml</dc:format>
        <dc:type
           rdf:resource="http://purl.org/dc/dcmitype/StillImage" />
        <dc:title />
      </cc:Work>
    </rdf:RDF>
  </metadata>
  <g
     inkscape:label="Layer 1"
     inkscape:groupmode="layer"
     id="layer1"
     transform="translate(339.36768,-470.15826)">
    <path
       sodipodi:type="star"
       style="fill:#ffff00;fill-rule:evenodd;stroke:#000000;stroke-width:1px;stroke-linecap:butt;stroke-linejoin:miter;stroke-opacity:1"
       id="path2985"
       sodipodi:sides="5"
       sodipodi:cx="120"
       sodipodi:cy="332.36218"
       sodipodi:r1="123.38756"
       sodipodi:r2="61.693779"
       sodipodi:arg1="-0.8345389"
       sodipodi:arg2="-0.20622037"
       inkscape:flatsided="true"
       inkscape:rounded="0"
       inkscape:randomized="0"
       d="M 202.85714,240.93361 232.558,382.91103 106.70753,455.03166 -0.77320123,357.62724 58.650527,225.30738 z"
       inkscape:transform-center-x="-70.463412"
       inkscape:transform-center-y="-1.5964078"
       transform="matrix(-5.8806524,-0.77729955,1.2400263,-3.9202155,1992.1565,2315.9941)" />
    <path
       sodipodi:type="star"
       style="fill:#ffff00;fill-rule:evenodd;stroke:#000000;stroke-width:1px;stroke-linecap:butt;stroke-linejoin:miter;stroke-opacity:1"
       id="path2991"
       sodipodi:sides="8"
       sodipodi:cx="442.85715"
       sodipodi:cy="123.79075"
       sodipodi:r1="163.95619"
       sodipodi:r2="151.47577"
       sodipodi:arg1="-0.39345064"
       sodipodi:arg2="-0.00075155623"
       inkscape:flatsided="true"
       inkscape:rounded="0"
       inkscape:randomized="0"
       d="m 594.28572,60.933605 0.0943,125.486605 -88.66574,88.79911 -125.4866,0.0943 L 291.42858,186.64789 291.33426,61.161291 380,-27.637823 l 125.4866,-0.09431 z"
       transform="matrix(0.03601006,-4.5707416,4.5406832,0.03624847,-169.52837,2940.0641)" />
    <path
       style="fill:#e3dbdb"
       d="m 2178.4574,1145.3368 c -155.1506,142.9981 -256.0865,230.1738 -265.6923,229.4709 -8.5201,-0.6233 -194.197,-38.5225 -412.6156,-84.2203 l -397.1248,-83.087 0,-282.62995 0,-282.62993 17.2663,-4.75362 c 9.4964,-2.61452 194.7615,-44.28785 411.7,-92.60738 l 394.4341,-87.85373 251.117,228.85333 251.1168,228.85336 -250.2015,230.60432 0,0 z"
       id="path3005"
       inkscape:connector-curvature="0" />
    <path
       style="opacity:0.6951218;fill:url(#linearGradient6113);fill-opacity:1;stroke:#ececec;stroke-width:45.98560333;stroke-miterlimit:4;stroke-opacity:1;stroke-dasharray:none"
       d="M 2336.4135,993.59399 C 2169.966,1146.7559 1966.6822,1329.4831 1939.7223,1350.1704 l -27.2407,20.903 -103.5277,-21.4659 c -56.9403,-11.8063 -231.298,-47.8013 -387.4621,-79.989 -156.1641,-32.1875 -291.7044,-60.5374 -301.2008,-62.9996 l -17.2663,-4.4767 0,-278.2682 0,-278.26809 410.5404,-91.93585 c 281.4816,-63.0346 413.5603,-89.16278 420.1466,-83.11487 18.7823,17.24705 485.4184,441.04831 487.1146,442.39969 0.9495,0.75646 -37.0367,37.0441 -84.4128,80.63911 l 0,0 z"
       id="path3007"
       inkscape:connector-curvature="0" />
    <path
       style="opacity:0.98;fill:#ffffff;fill-opacity:1;stroke:#ffe57d;stroke-width:11.25000000000000000;stroke-miterlimit:4;stroke-opacity:1;stroke-dasharray:none;stroke-dashoffset:0;marker-start:none;filter:url(#filter6196)"
       d="m 215.97745,456.16957 -63.57143,-74.51488 0,-105.28386 0,-105.28385 65,-74.219691 65,-74.219685 45.71429,0.191485 c 25.14285,0.105317 66.51311,0.977907 91.93389,1.939086 l 46.21962,1.747599 63.06609,73.511376 63.06611,73.51137 -0.0886,105.06005 -0.0887,105.06006 -64.84546,73.57143 -64.84546,73.57143 -91.49446,-0.0635 -91.49448,-0.0635 -63.57143,-74.51492 z"
       id="path5409"
       inkscape:connector-curvature="0"
       transform="matrix(0,-3.1143315,2.6858685,0,-340.88982,2071.2365)" />
    <path
       style="fill:url(#linearGradient6513);fill-opacity:1;stroke:#000000;stroke-width:2.89217615px;stroke-linecap:butt;stroke-linejoin:miter;stroke-opacity:1"
       d="M 2256.4142,-165.0518 1932.1915,446.69195 1092.2821,633.55186 699.56984,225.35192 850.36208,-14.896454 683.26274,-187.29696 z"
       id="path6271"
       inkscape:connector-curvature="0" />
    <path
       style="fill:#808080;fill-opacity:1;stroke:#000000;stroke-width:2.89217615000000006px;stroke-linecap:butt;stroke-linejoin:miter;stroke-opacity:1"
       d="m 2258.3328,-165.0518 -324.7023,612.29986 511.2741,464.92517 46.523,-1.11225 -3.357,-1085.01083 z"
       id="path6273"
       inkscape:connector-curvature="0" />
    <path
       style="fill:#808080;fill-opacity:1;stroke:#000000;stroke-width:2.89217615px;stroke-linecap:butt;stroke-linejoin:miter;stroke-opacity:1"
       d="m 437.6976,2175.1461 247.48361,-556.1309 410.55409,-402.6385 834.5377,175.7372 531.4185,783.0322 z"
       id="path6275"
       inkscape:connector-curvature="0" />
    <path
       style="fill:url(#linearGradient6553);fill-opacity:1;stroke:#000000;stroke-width:2.89234853px;stroke-linecap:butt;stroke-linejoin:miter;stroke-opacity:1"
       d="m -410.1564,2175.1917 849.33254,-0.8457 250.47208,-562.4168 -569.239,2.3246 -403.43183,-414.3701 -65.06965,35.6977 z"
       id="path6277"
       inkscape:connector-curvature="0" />
    <path
       style="fill:url(#linearGradient6529);fill-opacity:1;stroke:#000000;stroke-width:2.89217615px;stroke-linecap:butt;stroke-linejoin:miter;stroke-opacity:1"
       d="M 681.34428,-188.40926 849.21112,-14.340374 699.56984,227.57645 127.86352,224.23968 6.3100186,-198.42699 z"
       id="path6281"
       inkscape:connector-curvature="0" />
    <path
       style="fill:url(#linearGradient6537);fill-opacity:1;stroke:#000000;stroke-width:2.89217615px;stroke-linecap:butt;stroke-linejoin:miter;stroke-opacity:1"
       d="m -277.89451,624.65375 404.79876,-398.18956 -138.130373,-484.94594 -556.358487,4.44905 0,843.09409 z"
       id="path6283"
       inkscape:connector-curvature="0" />
    <path
       style="fill:url(#linearGradient6621);fill-opacity:1;stroke:#000000;stroke-width:1.4796778px;stroke-linecap:butt;stroke-linejoin:miter;stroke-opacity:1"
       d="m -570.90031,584.92093 3.12058,959.34767 218.4415,-308.8616 66.19779,-35.4368 4.96481,-574.07584 z"
       id="path6555"
       inkscape:connector-curvature="0" />
    <path
       style="fill:#808080;fill-opacity:1;stroke:#000000;stroke-width:1.4796778px;stroke-linecap:butt;stroke-linejoin:miter;stroke-opacity:1"
       d="m 1928.9684,1389.3037 589.1603,865.6703 -26.4792,-1344.57294 -48.5451,3.03745 z"
       id="path6623"
       inkscape:connector-curvature="0" />
    <path
       style="fill:url(#linearGradient6700);fill-opacity:1;stroke:#000000;stroke-width:1.21058095px;stroke-linecap:butt;stroke-linejoin:miter;stroke-opacity:1"
       d="m -349.33823,1236.8105 -219.00429,307.6773 -16.60048,629.9111 173.40645,2.0469 z"
       id="path6692"
       inkscape:connector-curvature="0" />
    <path
       sodipodi:type="arc"
       style="opacity:0.29999999999999999;fill:none;fill-opacity:1;stroke:#7d7d7d;stroke-width:17.70329285000000041;stroke-miterlimit:4;stroke-opacity:1;stroke-dasharray:none;stroke-dashoffset:0"
       id="path4414"
       sodipodi:cx="759.6347"
       sodipodi:cy="921.02118"
       sodipodi:rx="92.934036"
       sodipodi:ry="93.944191"
       d="m 852.56874,921.02118 c 0,51.88394 -41.60798,93.94422 -92.93404,93.94422 -51.32605,0 -92.93403,-42.06028 -92.93403,-93.94422 0,-51.88394 41.60798,-93.94419 92.93403,-93.94419 51.32606,0 92.93404,42.06025 92.93404,93.94419 z"
       transform="matrix(1.1304348,0,0,1.1290323,-434.40986,-171.00483)" />
    <path
       style="fill:#d49999;fill-opacity:1;stroke:#d45500;stroke-width:8.19299984;stroke-linecap:butt;stroke-linejoin:miter;stroke-miterlimit:4;stroke-opacity:1;stroke-dasharray:none;stroke-dashoffset:0;marker-start:none;marker-end:url(#Arrow2Mend)"
       d="M 757.14212,1228.9288 520.01418,969.65899"
       id="path6162"
       inkscape:connector-curvature="0"
       sodipodi:nodetypes="cc" />
    <path
       style="fill:none;stroke:#7d0000;stroke-width:20;stroke-linecap:butt;stroke-linejoin:miter;stroke-miterlimit:4;stroke-opacity:1;stroke-dasharray:none"
       d="M 686.94732,1615.3605 1093.0286,1215.3401"
       id="path3626"
       inkscape:connector-curvature="0" />
    <path
       sodipodi:type="arc"
       style="opacity:0.29999999999999999;fill:none;fill-opacity:1;stroke:#350000;stroke-width:17.76065445000000054;stroke-miterlimit:4;stroke-opacity:1;stroke-dasharray:none;stroke-dashoffset:0"
       id="path4416"
       sodipodi:cx="1164.7059"
       sodipodi:cy="1391.7522"
       sodipodi:rx="85.862968"
       sodipodi:ry="79.802055"
       d="m 1250.5689,1391.7522 c 0,44.0735 -38.4422,79.8021 -85.863,79.8021 -47.4208,0 -85.8629,-35.7286 -85.8629,-79.8021 0,-44.0735 38.4421,-79.8021 85.8629,-79.8021 47.4208,0 85.863,35.7286 85.863,79.8021 z"
       transform="matrix(1.1255873,0,0,1.1265823,-482.93786,-254.59851)" />
    <text
       xml:space="preserve"
       style="font-size:100px;font-style:normal;font-weight:normal;line-height:125%;letter-spacing:0px;word-spacing:0px;fill:#7d0000;fill-opacity:1;stroke:#350000;stroke-opacity:1;font-family:Sans"
       x="193.99292"
       y="1532.528"
       id="text4418"
       sodipodi:linespacing="125%"><tspan
         sodipodi:role="line"
         id="tspan4420"
         x="193.99292"
         y="1532.528">side face <tspan
   style="font-style:italic;font-variant:normal;font-weight:bold;font-stretch:normal;fill:#7d0000;fill-opacity:1;stroke:#350000;stroke-opacity:1;font-family:URW Chancery L;-inkscape-font-specification:URW Chancery L Bold Italic"
   id="tspan4422">S</tspan></tspan></text>
    <text
       xml:space="preserve"
       style="font-size:96.71784973px;font-style:normal;font-variant:normal;font-weight:normal;font-stretch:normal;line-height:125%;letter-spacing:0px;word-spacing:0px;fill:#000000;fill-opacity:1;stroke:none;font-family:Utopia;-inkscape-font-specification:Utopia"
       x="75.249657"
       y="1126.5085"
       id="text4424"
       sodipodi:linespacing="125%"><tspan
         sodipodi:role="line"
         id="tspan4426"
         x="75.249657"
         y="1126.5085"
         style="font-size:80.59820557px"><tspan
   style="font-size:80.59820557px;fill:#0000ff"
   id="tspan4430">vbf</tspan>.<tspan
   style="font-size:80.59820557px;fill:#d45500"
   id="tspan4428">side_mon_vs_int_mon</tspan>(<tspan
   style="font-style:italic;font-variant:normal;font-weight:bold;font-stretch:normal;fill:#806600;fill-opacity:1;font-family:URW Chancery L;-inkscape-font-specification:URW Chancery L Bold Italic"
   id="tspan4456">os</tspan>, <tspan
   style="font-style:italic;fill:#7d0000;fill-opacity:1;stroke:#7d0000;stroke-opacity:1;-inkscape-font-specification:Utopia Italic"
   id="tspan6159">m</tspan><tspan
   style="font-size:52.38957214px;font-style:italic;baseline-shift:sub;fill:#7d0000;fill-opacity:1;stroke:#7d0000;stroke-opacity:1;-inkscape-font-specification:Utopia Italic"
   id="tspan4460">j</tspan>, <tspan
   style="font-size:110px;font-style:italic;font-variant:normal;font-weight:bold;font-stretch:normal;fill:#7d0000;fill-opacity:1;font-family:URW Chancery L;-inkscape-font-specification:URW Chancery L Bold Italic"
   id="tspan4434">s</tspan>, e<tspan
   style="font-size:52.38957214px;baseline-shift:sub"
   id="tspan4464">i</tspan>)</tspan></text>
    <text
       xml:space="preserve"
       style="font-size:100px;font-style:normal;font-variant:normal;font-weight:normal;font-stretch:normal;line-height:125%;letter-spacing:0px;word-spacing:0px;fill:#806600;fill-opacity:1;stroke:none;font-family:Utopia;-inkscape-font-specification:Utopia"
       x="226.31775"
       y="627.43127"
       id="text4450"
       sodipodi:linespacing="125%"><tspan
         sodipodi:role="line"
         id="tspan4452"
         x="226.31775"
         y="627.43127">oshape <tspan
   style="font-size:100px;font-style:italic;font-variant:normal;font-weight:bold;font-stretch:normal;fill:#806600;font-family:URW Chancery L;-inkscape-font-specification:URW Chancery L Bold Italic"
   id="tspan4454">os</tspan></tspan></text>
    <path
       sodipodi:type="arc"
       style="fill:#ffffff;fill-opacity:1;stroke:#d45500;stroke-width:1.2158438;stroke-miterlimit:4;stroke-opacity:1;stroke-dasharray:none;stroke-dashoffset:0"
       id="path6134"
       sodipodi:cx="962.14288"
       sodipodi:cy="615.15747"
       sodipodi:rx="49.285717"
       sodipodi:ry="45"
       d="m 1011.4286,615.15747 c 0,24.85281 -22.06597,45 -49.28572,45 -27.21975,0 -49.28571,-20.14719 -49.28571,-45 0,-24.85281 22.06596,-45 49.28571,-45 27.21975,0 49.28572,20.14719 49.28572,45 z"
       transform="matrix(0.97898913,0,0,0.9834389,-295.43289,502.69308)" />
    <text
       xml:space="preserve"
       style="font-size:90px;font-style:normal;font-variant:normal;font-weight:normal;font-stretch:normal;line-height:125%;letter-spacing:0px;word-spacing:0px;fill:#d45500;fill-opacity:1;stroke:none;font-family:Utopia;-inkscape-font-specification:Utopia"
       x="604.67297"
       y="1130.3158"
       id="text6136"
       sodipodi:linespacing="125%"><tspan
         sodipodi:role="line"
         id="tspan6138"
         x="604.67297"
         y="1130.3158">vs</tspan></text>
    <g
       id="g3514"
       transform="translate(-614.17275,319.20822)"
       style="fill:#7d0000;fill-opacity:1;stroke:#7d0000;stroke-opacity:1">
      <g
         word-spacing="normal"
         letter-spacing="normal"
         font-size-adjust="none"
         font-stretch="normal"
         font-weight="normal"
         font-variant="normal"
         font-style="normal"
         stroke-miterlimit="10.433"
         xml:space="preserve"
         transform="matrix(2.6736781,0,0,-2.6736781,-467.89367,2107.6476)"
         id="g3516"
         style="font-style:normal;font-variant:normal;font-weight:normal;font-stretch:normal;letter-spacing:normal;word-spacing:normal;text-anchor:start;fill:#7d0000;fill-opacity:1;stroke:#7d0000;stroke-linecap:butt;stroke-linejoin:miter;stroke-miterlimit:10.43299961;stroke-opacity:1;stroke-dasharray:none;stroke-dashoffset:0"><path
           id="path3518"
           d="m 457.75,400.12 -0.03,-0.15 -0.04,-0.15 -0.03,-0.14 -0.03,-0.13 -0.04,-0.13 -0.03,-0.11 -0.04,-0.12 -0.03,-0.1 -0.04,-0.1 -0.04,-0.09 -0.04,-0.09 -0.05,-0.08 -0.05,-0.07 -0.05,-0.07 -0.06,-0.07 -0.06,-0.06 -0.07,-0.05 -0.07,-0.05 -0.08,-0.04 -0.09,-0.04 -0.09,-0.04 -0.1,-0.03 -0.11,-0.03 -0.12,-0.02 -0.13,-0.02 -0.06,-0.01 -0.07,-0.01 -0.07,-0.01 -0.08,-0.01 -0.07,0 -0.08,-0.01 -0.08,0 -0.09,-0.01 -0.08,0 -0.09,0 -0.1,0 -0.09,0 -0.1,-0.01 -0.1,0 c -0.6,0 -1.14,0 -1.14,-0.93 0,-0.41 0.25,-0.61 0.64,-0.61 1.36,0 2.79,0.15 4.18,0.15 1.64,0 3.35,-0.15 4.94,-0.15 0.25,0 0.89,0 0.89,1 0,0.54 -0.5,0.54 -1.19,0.54 -2.5,0 -2.5,0.36 -2.5,0.8 0,0.61 2.1,8.72 2.46,9.97 0.64,-1.44 2.03,-3.19 4.58,-3.19 l -0.05,1.1 c -3.3,0 -3.94,4.14 -3.94,4.43 0,0.1 0,0.21 0.14,0.8 l 2.46,9.77 c 0.34,1.34 1.68,2.73 2.57,3.48 1.75,1.55 3.21,1.89 4.05,1.89 1.98,0 3.19,-1.73 3.19,-4.69 0,-2.93 -1.64,-8.65 -2.55,-10.56 -1.69,-3.48 -4.08,-5.12 -5.92,-5.12 l 0.05,-1.1 c 5.78,0 12,7.27 12,14.6 0,4.68 -2.83,7.96 -6.63,7.96 -2.48,0 -4.87,-1.78 -6.51,-3.73 -0.5,2.69 -2.65,3.73 -4.49,3.73 -2.3,0 -3.25,-1.93 -3.69,-2.82 -0.9,-1.71 -1.54,-4.69 -1.54,-4.85 0,-0.5 0.5,-0.5 0.59,-0.5 0.5,0 0.55,0.07 0.84,1.16 0.86,3.53 1.85,5.92 3.64,5.92 0.85,0 1.55,-0.39 1.55,-2.28 0,-1.16 -0.15,-1.7 -0.34,-2.55 z"
           inkscape:connector-curvature="0"
           style="fill:#7d0000;fill-opacity:1;stroke:#7d0000;stroke-width:0;stroke-opacity:1" /><path
           id="path3520"
           d="m 528.75,422.5 0.14,0 0.15,0 0.14,0 0.07,0.01 0.08,0 0.07,0.01 0.07,0.01 0.07,0.01 0.07,0.01 0.07,0.01 0.06,0.02 0.07,0.02 0.06,0.02 0.06,0.02 0.06,0.03 0.06,0.03 0.05,0.04 0.05,0.03 0.05,0.05 0.04,0.04 0.04,0.05 0.02,0.03 0.02,0.03 0.01,0.02 0.02,0.03 0.01,0.03 0.02,0.04 0.01,0.03 0.01,0.04 0.01,0.03 0.01,0.04 0,0.04 0.01,0.04 0,0.04 0.01,0.04 0,0.04 0,0.05 c 0,1 -0.95,1 -1.64,1 h -29.84 c -0.71,0 -1.64,0 -1.64,-1 0,-0.98 0.93,-0.98 1.68,-0.98 z"
           inkscape:connector-curvature="0"
           style="fill:#7d0000;fill-opacity:1;stroke:#7d0000;stroke-width:0;stroke-opacity:1" /><path
           id="path3522"
           d="m 528.8,412.82 0.07,0 0.06,0 0.14,0.01 0.14,0 0.07,0 0.07,0.01 0.07,0.01 0.07,0 0.06,0.01 0.07,0.02 0.07,0.01 0.06,0.02 0.07,0.02 0.06,0.02 0.06,0.02 0.06,0.03 0.05,0.03 0.05,0.04 0.05,0.04 0.05,0.04 0.04,0.05 0.02,0.02 0.02,0.03 0.02,0.02 0.02,0.03 0.01,0.03 0.02,0.03 0.01,0.03 0.02,0.03 0.01,0.04 0.01,0.03 0.01,0.04 0.01,0.04 0,0.04 0.01,0.04 0,0.04 0.01,0.04 0,0.05 0,0.04 c 0,1 -0.95,1 -1.69,1 H 499 c -0.75,0 -1.68,0 -1.68,-1 0,-1 0.93,-1 1.64,-1 z"
           inkscape:connector-curvature="0"
           style="fill:#7d0000;fill-opacity:1;stroke:#7d0000;stroke-width:0;stroke-opacity:1" /><path
           id="path3524"
           d="m 568.05,416.91 -17.69,-21.86 c -0.39,-0.5 -0.44,-0.61 -0.44,-0.8 0,-0.56 0.44,-0.56 1.35,-0.56 h 41.29 l 4.28,12.41 h -1.23 c -1.25,-3.74 -4.59,-6.77 -8.83,-8.22 -0.8,-0.25 -4.23,-1.44 -11.55,-1.44 h -21.18 l 17.29,21.38 c 0.35,0.43 0.46,0.59 0.46,0.79 0,0.19 -0.07,0.25 -0.36,0.69 l -16.19,22.22 h 19.73 c 5.68,0 17.13,-0.34 20.63,-9.66 h 1.23 l -4.28,11.66 h -41.29 c -1.35,0 -1.39,-0.05 -1.39,-1.59 z"
           inkscape:connector-curvature="0"
           style="fill:#7d0000;fill-opacity:1;stroke:#7d0000;stroke-width:0;stroke-opacity:1" /><path
           id="path3526"
           d="m 614.94,412.98 0,0.06 -0.01,0.05 0,0.06 -0.01,0.06 -0.02,0.06 -0.01,0.05 -0.02,0.06 -0.02,0.06 -0.02,0.06 -0.03,0.05 -0.02,0.06 -0.04,0.05 -0.03,0.06 -0.04,0.05 -0.03,0.05 -0.05,0.05 -0.04,0.04 -0.05,0.05 -0.05,0.04 -0.05,0.05 -0.06,0.03 -0.06,0.04 -0.06,0.03 -0.06,0.03 -0.07,0.03 -0.07,0.03 -0.07,0.02 -0.07,0.02 -0.08,0.01 -0.08,0.01 -0.09,0.01 -0.08,0 c -1.02,0 -1.96,-0.99 -1.96,-1.92 0,-0.57 0.43,-1.33 1.39,-1.33 0.94,0 1.96,0.9 1.96,1.92 z"
           inkscape:connector-curvature="0"
           style="fill:#7d0000;fill-opacity:1;stroke:#7d0000;stroke-width:0;stroke-opacity:1" /><path
           id="path3528"
           d="m 607.55,389.5 -0.06,-0.23 -0.07,-0.22 -0.07,-0.22 -0.08,-0.21 -0.09,-0.22 -0.09,-0.21 -0.1,-0.2 -0.11,-0.2 -0.11,-0.2 -0.11,-0.19 -0.13,-0.18 -0.12,-0.18 -0.14,-0.17 -0.13,-0.17 -0.14,-0.16 -0.15,-0.16 -0.15,-0.14 -0.16,-0.14 -0.15,-0.14 -0.17,-0.12 -0.16,-0.12 -0.17,-0.1 -0.17,-0.1 -0.18,-0.09 -0.17,-0.08 -0.18,-0.07 -0.19,-0.06 -0.18,-0.05 -0.19,-0.04 -0.19,-0.03 -0.19,-0.02 -0.19,-0.01 c -0.45,0 -0.87,0.07 -1.26,0.21 0.9,0.42 1.18,1.25 1.18,1.78 0,0.83 -0.65,1.28 -1.36,1.28 -1.07,0 -1.98,-0.94 -1.98,-2.05 0,-1.33 1.36,-2.2 3.45,-2.2 2.1,0 6.16,1.25 7.25,5.5 l 3.13,12.48 c 0.11,0.38 0.17,0.69 0.17,1.22 0,1.91 -1.62,3.27 -3.72,3.27 -3.87,0 -6.09,-4.85 -6.09,-5.33 0,-0.45 0.48,-0.45 0.59,-0.45 0.41,0 0.46,0.11 0.69,0.62 0.87,2.03 2.69,4.19 4.7,4.19 0.88,0 1.19,-0.59 1.19,-1.7 0,-0.39 -0.06,-0.88 -0.11,-1.05 z"
           inkscape:connector-curvature="0"
           style="fill:#7d0000;fill-opacity:1;stroke:#7d0000;stroke-width:0;stroke-opacity:1" /><path
           id="path3530"
           d="m 647.5,425.03 -0.09,0.17 -0.08,0.17 -0.1,0.16 -0.09,0.16 -0.1,0.16 -0.1,0.16 -0.11,0.15 -0.11,0.14 -0.11,0.15 -0.12,0.13 -0.12,0.14 -0.12,0.13 -0.13,0.12 -0.13,0.12 -0.14,0.11 -0.14,0.11 -0.14,0.11 -0.15,0.09 -0.15,0.1 -0.15,0.08 -0.16,0.08 -0.17,0.08 -0.16,0.06 -0.18,0.07 -0.17,0.05 -0.18,0.05 -0.19,0.04 -0.19,0.03 -0.19,0.03 -0.2,0.02 -0.2,0.01 -0.21,0 0.05,-1.09 c 3.23,0 3.94,-4.08 3.94,-4.37 0,-0.32 -0.1,-0.61 -0.14,-0.86 l -2.5,-9.77 c -0.25,-0.89 -0.25,-0.98 -1,-1.84 -2.19,-2.74 -4.24,-3.53 -5.63,-3.53 -2.48,0 -3.19,2.73 -3.19,4.68 0,2.49 1.6,8.61 2.74,10.91 1.54,2.94 3.79,4.78 5.78,4.78 l -0.05,1.09 c -5.83,0 -12,-7.31 -12,-14.59 0,-4.69 2.74,-7.97 6.63,-7.97 0.98,0 3.48,0.21 6.47,3.74 0.4,-2.1 2.14,-3.74 4.53,-3.74 1.75,0 2.89,1.14 3.68,2.74 0.85,1.79 1.5,4.84 1.5,4.93 0,0.5 -0.45,0.5 -0.59,0.5 -0.5,0 -0.55,-0.2 -0.7,-0.9 -0.85,-3.24 -1.75,-6.17 -3.78,-6.17 -1.35,0 -1.5,1.29 -1.5,2.29 0,1.1 0.09,1.49 0.64,3.69 0.56,2.09 0.65,2.59 1.11,4.48 l 1.78,6.97 c 0.36,1.39 0.36,1.5 0.36,1.69 0,0.86 -0.61,1.36 -1.46,1.36 -1.18,0 -1.93,-1.11 -2.09,-2.2 z"
           inkscape:connector-curvature="0"
           style="fill:#7d0000;fill-opacity:1;stroke:#7d0000;stroke-width:0;stroke-opacity:1" /><path
           id="path3532"
           d="m 670.5,420.54 -0.01,0.06 0,0.06 -0.01,0.05 -0.01,0.06 -0.01,0.06 -0.01,0.06 -0.02,0.05 -0.02,0.06 -0.02,0.06 -0.03,0.05 -0.03,0.06 -0.03,0.05 -0.03,0.06 -0.04,0.05 -0.04,0.05 -0.04,0.05 -0.04,0.05 -0.05,0.04 -0.05,0.05 -0.05,0.04 -0.06,0.04 -0.06,0.03 -0.06,0.04 -0.06,0.03 -0.07,0.02 -0.07,0.03 -0.07,0.02 -0.08,0.02 -0.07,0.01 -0.08,0.01 -0.09,0.01 -0.09,0 c -1.01,0 -1.95,-0.98 -1.95,-1.92 0,-0.56 0.42,-1.33 1.39,-1.33 0.94,0 1.96,0.91 1.96,1.92 z"
           inkscape:connector-curvature="0"
           style="fill:#7d0000;fill-opacity:1;stroke:#7d0000;stroke-width:0;stroke-opacity:1" /><path
           id="path3534"
           d="m 663.1,397.06 -0.05,-0.23 -0.07,-0.22 -0.07,-0.22 -0.08,-0.21 -0.09,-0.21 -0.09,-0.21 -0.1,-0.21 -0.11,-0.2 -0.11,-0.19 -0.12,-0.19 -0.12,-0.19 -0.12,-0.18 -0.14,-0.17 -0.13,-0.17 -0.15,-0.16 -0.14,-0.15 -0.15,-0.15 -0.16,-0.14 -0.15,-0.13 -0.17,-0.13 -0.16,-0.11 -0.17,-0.11 -0.17,-0.1 -0.18,-0.09 -0.18,-0.08 -0.18,-0.07 -0.18,-0.06 -0.18,-0.05 -0.19,-0.04 -0.19,-0.03 -0.19,-0.02 -0.19,0 c -0.45,0 -0.87,0.06 -1.27,0.2 0.91,0.42 1.19,1.25 1.19,1.78 0,0.83 -0.65,1.28 -1.36,1.28 -1.08,0 -1.98,-0.94 -1.98,-2.04 0,-1.33 1.36,-2.21 3.45,-2.21 2.1,0 6.16,1.25 7.25,5.5 l 3.13,12.49 c 0.11,0.37 0.17,0.68 0.17,1.22 0,1.9 -1.63,3.26 -3.72,3.26 -3.88,0 -6.09,-4.84 -6.09,-5.33 0,-0.45 0.48,-0.45 0.59,-0.45 0.41,0 0.45,0.11 0.69,0.62 0.87,2.04 2.68,4.19 4.7,4.19 0.88,0 1.19,-0.59 1.19,-1.7 0,-0.39 -0.06,-0.88 -0.11,-1.05 z"
           inkscape:connector-curvature="0"
           style="fill:#7d0000;fill-opacity:1;stroke:#7d0000;stroke-width:0;stroke-opacity:1" /><path
           id="path3536"
           d="m 688.87,409.14 -0.01,-0.07 -0.02,-0.08 -0.02,-0.07 -0.01,-0.08 -0.04,-0.16 -0.04,-0.16 -0.03,-0.16 -0.04,-0.16 -0.04,-0.16 -0.03,-0.16 -0.02,-0.08 -0.02,-0.07 -0.01,-0.07 -0.02,-0.07 -0.01,-0.07 -0.02,-0.07 -0.01,-0.06 -0.01,-0.06 -0.01,-0.06 -0.01,-0.05 -0.01,-0.05 -0.01,-0.04 0,-0.04 -0.01,-0.04 0,-0.03 0,-0.02 c 0,-0.89 0.7,-1.35 1.43,-1.35 0.62,0 1.5,0.39 1.85,1.39 0.06,0.11 0.65,2.44 0.95,3.69 l 1.1,4.48 c 0.29,1.1 0.59,2.19 0.84,3.35 0.2,0.84 0.61,2.28 0.66,2.48 0.75,1.55 3.39,6.08 8.1,6.08 2.25,0 2.71,-1.84 2.71,-3.48 0,-1.25 -0.36,-2.64 -0.75,-4.14 l -1.39,-5.79 -1,-3.78 c -0.2,-1 -0.66,-2.68 -0.66,-2.93 0,-0.89 0.71,-1.35 1.46,-1.35 1.54,0 1.84,1.25 2.23,2.85 0.7,2.78 2.55,10.06 3,12 0.14,0.65 2.78,6.62 8.22,6.62 2.14,0 2.68,-1.69 2.68,-3.48 0,-2.85 -2.09,-8.52 -3.09,-11.16 -0.45,-1.2 -0.64,-1.75 -0.64,-2.75 0,-2.33 1.73,-4.08 4.08,-4.08 4.69,0 6.53,7.27 6.53,7.67 0,0.5 -0.45,0.5 -0.59,0.5 -0.5,0 -0.5,-0.15 -0.75,-0.9 -0.75,-2.64 -2.35,-6.17 -5.08,-6.17 -0.86,0 -1.21,0.5 -1.21,1.64 0,1.25 0.46,2.45 0.9,3.54 0.95,2.58 3.04,8.11 3.04,10.96 0,3.23 -2,5.32 -5.73,5.32 -3.74,0 -6.27,-2.18 -8.11,-4.82 -0.06,0.65 -0.2,2.34 -1.61,3.53 -1.24,1.04 -2.83,1.29 -4.08,1.29 -4.48,0 -6.92,-3.18 -7.76,-4.32 -0.25,2.84 -2.35,4.32 -4.6,4.32 -2.28,0 -3.23,-1.93 -3.68,-2.82 -0.9,-1.75 -1.55,-4.69 -1.55,-4.85 0,-0.5 0.5,-0.5 0.61,-0.5 0.5,0 0.54,0.07 0.84,1.16 0.85,3.53 1.85,5.92 3.64,5.92 0.8,0 1.55,-0.39 1.55,-2.28 0,-1.05 -0.16,-1.61 -0.8,-4.19 z"
           inkscape:connector-curvature="0"
           style="fill:#7d0000;fill-opacity:1;stroke:#7d0000;stroke-width:0;stroke-opacity:1" /><path
           id="path3538"
           d="m 743.46,420.54 0,0.06 -0.01,0.06 0,0.05 -0.01,0.06 -0.02,0.06 -0.01,0.06 -0.02,0.05 -0.02,0.06 -0.02,0.06 -0.03,0.05 -0.02,0.06 -0.04,0.05 -0.03,0.06 -0.04,0.05 -0.03,0.05 -0.05,0.05 -0.04,0.05 -0.05,0.04 -0.05,0.05 -0.05,0.04 -0.06,0.04 -0.06,0.03 -0.06,0.04 -0.06,0.03 -0.07,0.02 -0.07,0.03 -0.07,0.02 -0.07,0.02 -0.08,0.01 -0.08,0.01 -0.09,0.01 -0.08,0 c -1.02,0 -1.96,-0.98 -1.96,-1.92 0,-0.56 0.42,-1.33 1.39,-1.33 0.94,0 1.96,0.91 1.96,1.92 z"
           inkscape:connector-curvature="0"
           style="fill:#7d0000;fill-opacity:1;stroke:#7d0000;stroke-width:0;stroke-opacity:1" /><path
           id="path3540"
           d="m 736.07,397.06 -0.06,-0.23 -0.07,-0.22 -0.07,-0.22 -0.08,-0.21 -0.09,-0.21 -0.09,-0.21 -0.1,-0.21 -0.11,-0.2 -0.11,-0.19 -0.11,-0.19 -0.13,-0.19 -0.12,-0.18 -0.14,-0.17 -0.13,-0.17 -0.14,-0.16 -0.15,-0.15 -0.15,-0.15 -0.16,-0.14 -0.15,-0.13 -0.17,-0.13 -0.16,-0.11 -0.17,-0.11 -0.17,-0.1 -0.18,-0.09 -0.17,-0.08 -0.18,-0.07 -0.19,-0.06 -0.18,-0.05 -0.19,-0.04 -0.19,-0.03 -0.19,-0.02 -0.19,0 c -0.45,0 -0.87,0.06 -1.26,0.2 0.9,0.42 1.18,1.25 1.18,1.78 0,0.83 -0.65,1.28 -1.35,1.28 -1.08,0 -1.99,-0.94 -1.99,-2.04 0,-1.33 1.36,-2.21 3.45,-2.21 2.1,0 6.16,1.25 7.25,5.5 l 3.13,12.49 c 0.11,0.37 0.17,0.68 0.17,1.22 0,1.9 -1.63,3.26 -3.72,3.26 -3.87,0 -6.09,-4.84 -6.09,-5.33 0,-0.45 0.48,-0.45 0.59,-0.45 0.41,0 0.46,0.11 0.69,0.62 0.87,2.04 2.69,4.19 4.7,4.19 0.88,0 1.19,-0.59 1.19,-1.7 0,-0.39 -0.06,-0.88 -0.11,-1.05 z"
           inkscape:connector-curvature="0"
           style="fill:#7d0000;fill-opacity:1;stroke:#7d0000;stroke-width:0;stroke-opacity:1" /></g>    </g>
    <text
       xml:space="preserve"
       style="font-size:144px;font-style:normal;font-weight:normal;line-height:125%;letter-spacing:0px;word-spacing:0px;fill:#000000;fill-opacity:1;stroke:none;font-family:Sans"
       x="363.48944"
       y="901.0849"
       id="text6082"
       sodipodi:linespacing="125%"><tspan
         sodipodi:role="line"
         id="tspan6084"
         x="363.48944"
         y="901.0849"
         style="font-style:italic;-inkscape-font-specification:URW Chancery L Bold Italic"><tspan
           style="font-size:150px;font-style:italic;-inkscape-font-specification:Sans Italic"
           id="tspan8812">e</tspan><tspan
           style="font-size:110px;font-style:italic;font-variant:normal;font-weight:bold;font-stretch:normal;baseline-shift:sub;font-family:URW Chancery L;-inkscape-font-specification:URW Chancery L Bold Italic"
           id="tspan6086">i</tspan></tspan></text>
  </g>
</svg>
