<?xml version="1.0" encoding="UTF-8" standalone="no"?>
<!-- Created with Inkscape (http://www.inkscape.org/) -->

<svg
   xmlns:osb="http://www.openswatchbook.org/uri/2009/osb"
   xmlns:dc="http://purl.org/dc/elements/1.1/"
   xmlns:cc="http://creativecommons.org/ns#"
   xmlns:rdf="http://www.w3.org/1999/02/22-rdf-syntax-ns#"
   xmlns:svg="http://www.w3.org/2000/svg"
   xmlns="http://www.w3.org/2000/svg"
   xmlns:xlink="http://www.w3.org/1999/xlink"
   xmlns:sodipodi="http://sodipodi.sourceforge.net/DTD/sodipodi-0.dtd"
   xmlns:inkscape="http://www.inkscape.org/namespaces/inkscape"
   width="4535.4331"
   height="1204.7244"
   id="svg2"
   version="1.1"
   inkscape:version="0.48.4 r9939"
   sodipodi:docname="sysmatrix_basis_vs_basis_impractical.svg">
  <sodipodi:namedview
     id="base"
     pagecolor="#ffffff"
     bordercolor="#666666"
     borderopacity="1.0"
     inkscape:pageopacity="0.0"
     inkscape:pageshadow="2"
     inkscape:zoom="0.1767767"
     inkscape:cx="3529.7019"
     inkscape:cy="736.54905"
     inkscape:document-units="px"
     inkscape:current-layer="layer1"
     showgrid="false"
     inkscape:window-width="1366"
     inkscape:window-height="757"
     inkscape:window-x="0"
     inkscape:window-y="0"
     inkscape:window-maximized="1"
     showguides="true"
     inkscape:guide-bbox="true"
     fit-margin-top="-0.1"
     fit-margin-left="0.3"
     fit-margin-right="0"
     fit-margin-bottom="0"
     units="cm"
     width="79.4cm" />
  <defs
     id="defs4">
    <marker
       inkscape:stockid="Arrow2Sstart"
       orient="auto"
       refY="0"
       refX="0"
       id="Arrow2Sstart"
       style="overflow:visible">
      <path
         id="path4698"
         style="fill-rule:evenodd;stroke-width:0.625;stroke-linejoin:round"
         d="M 8.7185878,4.0337352 -2.2072895,0.01601326 8.7185884,-4.0017078 c -1.7454984,2.3720609 -1.7354408,5.6174519 -6e-7,8.035443 z"
         transform="matrix(0.3,0,0,0.3,-0.69,0)"
         inkscape:connector-curvature="0" />
    </marker>
    <marker
       inkscape:stockid="Arrow2Lstart"
       orient="auto"
       refY="0"
       refX="0"
       id="Arrow2Lstart"
       style="overflow:visible">
      <path
         id="path4686"
         style="fill-rule:evenodd;stroke-width:0.625;stroke-linejoin:round"
         d="M 8.7185878,4.0337352 -2.2072895,0.01601326 8.7185884,-4.0017078 c -1.7454984,2.3720609 -1.7354408,5.6174519 -6e-7,8.035443 z"
         transform="matrix(1.1,0,0,1.1,1.1,0)"
         inkscape:connector-curvature="0" />
    </marker>
    <marker
       inkscape:stockid="Arrow1Lend"
       orient="auto"
       refY="0"
       refX="0"
       id="Arrow1Lend"
       style="overflow:visible">
      <path
         id="path4671"
         d="M 0,0 5,-5 -12.5,0 5,5 0,0 z"
         style="fill-rule:evenodd;stroke:#000000;stroke-width:1pt"
         transform="matrix(-0.8,0,0,-0.8,-10,0)"
         inkscape:connector-curvature="0" />
    </marker>
    <marker
       style="overflow:visible"
       id="Arrow2Mstart"
       refX="0"
       refY="0"
       orient="auto"
       inkscape:stockid="Arrow2Mstart">
      <path
         inkscape:connector-curvature="0"
         transform="scale(0.6,0.6)"
         d="M 8.7185878,4.0337352 -2.2072895,0.01601326 8.7185884,-4.0017078 c -1.7454984,2.3720609 -1.7354408,5.6174519 -6e-7,8.035443 z"
         style="fill-rule:evenodd;stroke-width:0.625;stroke-linejoin:round"
         id="path10517" />
    </marker>
    <marker
       style="overflow:visible"
       id="Arrow1Mstart"
       refX="0"
       refY="0"
       orient="auto"
       inkscape:stockid="Arrow1Mstart">
      <path
         inkscape:connector-curvature="0"
         transform="matrix(0.4,0,0,0.4,4,0)"
         style="fill-rule:evenodd;stroke:#000000;stroke-width:1pt"
         d="M 0,0 5,-5 -12.5,0 5,5 0,0 z"
         id="path10499" />
    </marker>
    <marker
       style="overflow:visible"
       id="DotS"
       refX="0"
       refY="0"
       orient="auto"
       inkscape:stockid="DotS">
      <path
         inkscape:connector-curvature="0"
         transform="matrix(0.2,0,0,0.2,1.48,0.2)"
         style="fill-rule:evenodd;stroke:#000000;stroke-width:1pt"
         d="m -2.5,-1 c 0,2.76 -2.24,5 -5,5 -2.76,0 -5,-2.24 -5,-5 0,-2.76 2.24,-5 5,-5 2.76,0 5,2.24 5,5 z"
         id="path10560" />
    </marker>
    <inkscape:path-effect
       border_marks="both"
       mark_dir="both"
       offset="0"
       shift="0"
       major_mark_steps="5"
       minor_mark_length="7"
       mark_length="14"
       mark_distance="20"
       unit="px"
       is_visible="true"
       id="path-effect9221"
       effect="ruler" />
    <inkscape:path-effect
       border_marks="both"
       mark_dir="left"
       offset="0"
       shift="0"
       major_mark_steps="5"
       minor_mark_length="7"
       mark_length="14"
       mark_distance="20"
       unit="px"
       is_visible="true"
       id="path-effect9217"
       effect="ruler" />
    <inkscape:path-effect
       back_thickness="0.25"
       front_thickness="1"
       stroke_width_bottom="1"
       stroke_width_top="1"
       fat_output="true"
       bottom_smth_variation="0;1"
       top_smth_variation="0;1"
       scale_tb="1"
       scale_tf="1"
       scale_bb="1"
       scale_bf="1"
       top_tgt_variation="0;1"
       bottom_tgt_variation="0;1"
       top_edge_variation="167.2;1"
       bottom_edge_variation="167.2;1"
       bender="2333.9694,891.5747 , 5,0"
       do_bend="true"
       growth="0"
       dist_rdm="73.6;1"
       direction="2333.9694,886.5747 , 1.1590333,0"
       is_visible="true"
       id="path-effect9215"
       effect="rough_hatches" />
    <linearGradient
       id="linearGradient6427"
       inkscape:collect="always">
      <stop
         id="stop6429"
         offset="0"
         style="stop-color:#cccccc;stop-opacity:1;" />
      <stop
         id="stop6431"
         offset="1"
         style="stop-color:#cccccc;stop-opacity:0;" />
    </linearGradient>
    <linearGradient
       osb:paint="solid"
       id="linearGradient6103">
      <stop
         id="stop6105"
         offset="0"
         style="stop-color:#897dff;stop-opacity:1;" />
    </linearGradient>
    <marker
       style="overflow:visible"
       id="Arrow1Lstart"
       refX="0"
       refY="0"
       orient="auto"
       inkscape:stockid="Arrow1Lstart">
      <path
         inkscape:connector-curvature="0"
         transform="matrix(0.8,0,0,0.8,10,0)"
         style="fill-rule:evenodd;stroke:#000000;stroke-width:1pt"
         d="M 0,0 5,-5 -12.5,0 5,5 0,0 z"
         id="path5469" />
    </marker>
    <linearGradient
       osb:paint="gradient"
       id="linearGradient5411">
      <stop
         id="stop5413"
         offset="0"
         style="stop-color:#ffffff;stop-opacity:1;" />
      <stop
         style="stop-color:#ffffff;stop-opacity:0.49803922;"
         offset="0.5"
         id="stop5419" />
      <stop
         id="stop5415"
         offset="1"
         style="stop-color:#ffffff;stop-opacity:0;" />
    </linearGradient>
    <linearGradient
       id="linearGradient5375">
      <stop
         id="stop5377"
         offset="0"
         style="stop-color:#b4de21;stop-opacity:1;" />
      <stop
         id="stop5379"
         offset="1"
         style="stop-color:#77ded3;stop-opacity:0;" />
    </linearGradient>
    <linearGradient
       id="linearGradient5321">
      <stop
         id="stop5323"
         offset="0"
         style="stop-color:#000000;stop-opacity:1;" />
      <stop
         id="stop5325"
         offset="1"
         style="stop-color:#000000;stop-opacity:0;" />
    </linearGradient>
    <linearGradient
       osb:paint="solid"
       id="linearGradient5313">
      <stop
         id="stop5315"
         offset="0"
         style="stop-color:#000000;stop-opacity:1;" />
    </linearGradient>
    <linearGradient
       osb:paint="solid"
       id="linearGradient5299">
      <stop
         id="stop5301"
         offset="0"
         style="stop-color:#7b00d7;stop-opacity:1;" />
    </linearGradient>
    <linearGradient
       id="linearGradient3019">
      <stop
         id="stop3021"
         offset="0"
         style="stop-color:#f1cc63;stop-opacity:1;" />
      <stop
         id="stop3023"
         offset="1"
         style="stop-color:#ffe6d5;stop-opacity:0;" />
    </linearGradient>
    <filter
       color-interpolation-filters="sRGB"
       id="filter6196"
       inkscape:collect="always">
      <feGaussianBlur
         id="feGaussianBlur6198"
         stdDeviation="17.06695"
         inkscape:collect="always" />
    </filter>
    <linearGradient
       gradientTransform="matrix(1.2994743,0,0,2.3850187,-203.2567,-341.03912)"
       gradientUnits="userSpaceOnUse"
       y2="282.27817"
       x2="985.81793"
       y1="282.27817"
       x1="212.12254"
       id="linearGradient6529"
       xlink:href="#linearGradient6427"
       inkscape:collect="always" />
    <linearGradient
       gradientTransform="matrix(1.2994743,0,0,2.3850187,-203.2567,-341.03912)"
       gradientUnits="userSpaceOnUse"
       y2="366.34015"
       x2="324.49045"
       y1="366.34015"
       x1="-313.32211"
       id="linearGradient6537"
       xlink:href="#linearGradient6427"
       inkscape:collect="always" />
    <linearGradient
       gradientTransform="matrix(1.2994743,0,0,2.3850187,-203.2567,-341.03912)"
       gradientUnits="userSpaceOnUse"
       y2="1116.8373"
       x2="839.72589"
       y1="1116.8373"
       x1="-169.18456"
       id="linearGradient6553"
       xlink:href="#linearGradient6427"
       inkscape:collect="always" />
    <linearGradient
       gradientTransform="matrix(1.2994743,0,0,2.3850187,-349.47805,130.52244)"
       gradientUnits="userSpaceOnUse"
       y2="608.36334"
       x2="65.654839"
       y1="608.36334"
       x1="-203.35715"
       id="linearGradient6621"
       xlink:href="#linearGradient5321"
       inkscape:collect="always" />
    <linearGradient
       gradientTransform="matrix(1.2994743,0,0,1.5964121,-349.47805,584.00407)"
       gradientUnits="userSpaceOnUse"
       y2="1103.3163"
       x2="0.5"
       y1="1103.3163"
       x1="-216.21429"
       id="linearGradient6700"
       xlink:href="#linearGradient5321"
       inkscape:collect="always" />
    <marker
       style="overflow:visible"
       id="Arrow2Mend"
       refX="0"
       refY="0"
       orient="auto"
       inkscape:stockid="Arrow2Mend">
      <path
         transform="scale(-0.6,-0.6)"
         d="M 8.7185878,4.0337352 -2.2072895,0.01601326 8.7185884,-4.0017078 c -1.7454984,2.3720609 -1.7354408,5.6174519 -6e-7,8.035443 z"
         style="fill-rule:evenodd;stroke-width:0.625;stroke-linejoin:round"
         id="path4914"
         inkscape:connector-curvature="0" />
    </marker>
    <marker
       style="overflow:visible"
       id="Arrow2Mend-3"
       refX="0"
       refY="0"
       orient="auto"
       inkscape:stockid="Arrow2Mend">
      <path
         transform="scale(-0.6,-0.6)"
         d="M 8.7185878,4.0337352 -2.2072895,0.01601326 8.7185884,-4.0017078 c -1.7454984,2.3720609 -1.7354408,5.6174519 -6e-7,8.035443 z"
         style="fill-rule:evenodd;stroke-width:0.625;stroke-linejoin:round"
         id="path4914-7"
         inkscape:connector-curvature="0" />
    </marker>
    <marker
       style="overflow:visible"
       id="DotS-0"
       refX="0"
       refY="0"
       orient="auto"
       inkscape:stockid="DotS">
      <path
         inkscape:connector-curvature="0"
         transform="matrix(0.2,0,0,0.2,1.48,0.2)"
         style="fill-rule:evenodd;stroke:#000000;stroke-width:1pt"
         d="m -2.5,-1 c 0,2.76 -2.24,5 -5,5 -2.76,0 -5,-2.24 -5,-5 0,-2.76 2.24,-5 5,-5 2.76,0 5,2.24 5,5 z"
         id="path10560-7" />
    </marker>
    <inkscape:path-effect
       border_marks="both"
       mark_dir="both"
       offset="0"
       shift="0"
       major_mark_steps="5"
       minor_mark_length="7"
       mark_length="14"
       mark_distance="20"
       unit="px"
       is_visible="true"
       id="path-effect9221-4"
       effect="ruler" />
  </defs>
  <metadata
     id="metadata7">
    <rdf:RDF>
      <cc:Work
         rdf:about="">
        <dc:format>image/svg+xml</dc:format>
        <dc:type
           rdf:resource="http://purl.org/dc/dcmitype/StillImage" />
        <dc:title />
      </cc:Work>
    </rdf:RDF>
  </metadata>
  <g
     transform="translate(339.36768,-505.59057)"
     id="layer1"
     inkscape:groupmode="layer"
     inkscape:label="Layer 1">
    <path
       transform="matrix(0.04284363,-5.4381244,5.4023618,0.04312729,-135.54593,3812.8547)"
       d="m 594.28572,60.933605 0.0943,125.486605 -88.66574,88.79911 -125.4866,0.0943 L 291.42858,186.64789 291.33426,61.161291 380,-27.637823 l 125.4866,-0.09431 z"
       inkscape:randomized="0"
       inkscape:rounded="0"
       inkscape:flatsided="true"
       sodipodi:arg2="-0.00075155623"
       sodipodi:arg1="-0.39345064"
       sodipodi:r2="151.47577"
       sodipodi:r1="163.95619"
       sodipodi:cy="123.79075"
       sodipodi:cx="442.85715"
       sodipodi:sides="8"
       id="path2991"
       style="fill:#ffff00;fill-rule:evenodd;stroke:#000000;stroke-width:1px;stroke-linecap:butt;stroke-linejoin:miter;stroke-opacity:1"
       sodipodi:type="star" />
    <path
       sodipodi:nodetypes="ccccccssccccccccccc"
       transform="matrix(0,-3.7053338,-3.1955617,0,1433.9935,2788.7654)"
       inkscape:connector-curvature="0"
       id="path5409"
       d="m 215.97745,456.16957 -63.57143,-74.51488 0,-105.28386 0,-105.28385 65,-74.219691 c 21.66667,-24.739895 128.00691,-180.387971 65,-74.219685 l 45.71429,0.191485 c 25.14285,0.105317 66.51311,0.977907 91.93389,1.939086 l 46.21962,1.747599 63.06609,73.511376 63.06611,73.51137 -0.0886,105.06005 -0.0887,105.06006 -64.84546,73.57143 -64.84546,73.57143 -91.49446,-0.0635 -91.49448,-0.0635 -63.57143,-74.51492 z"
       style="opacity:0.98;fill:#ffffff;fill-opacity:1;stroke:#ffe57d;stroke-width:11.25000000000000000;stroke-miterlimit:4;stroke-opacity:1;stroke-dasharray:none;stroke-dashoffset:0;marker-start:none;filter:url(#filter6196)" />
    <path
       inkscape:connector-curvature="0"
       id="path6277"
       d="m -421.83751,2902.8335 1010.50901,-1.0063 298.0038,-669.1458 -677.2626,2.7659 -479.99053,-493.0047 -77.41787,42.4719 z"
       style="fill:url(#linearGradient6553);fill-opacity:1;stroke:#000000;stroke-width:3.44122601px;stroke-linecap:butt;stroke-linejoin:miter;stroke-opacity:1" />
    <path
       inkscape:connector-curvature="0"
       id="path6281"
       d="M 876.7956,90.695419 1076.5182,297.79708 898.4799,585.62211 218.2815,581.65214 73.661,78.776589 z"
       style="fill:url(#linearGradient6529);fill-opacity:1;stroke:#000000;stroke-width:3.44102073px;stroke-linecap:butt;stroke-linejoin:miter;stroke-opacity:1" />
    <path
       inkscape:connector-curvature="0"
       id="path6283"
       d="M -264.4766,1058.0522 217.1402,584.29877 52.79707,7.3252989 l -661.93784,5.2934901 0,1003.086711 z"
       style="fill:url(#linearGradient6537);fill-opacity:1;stroke:#000000;stroke-width:3.44102073px;stroke-linecap:butt;stroke-linejoin:miter;stroke-opacity:1" />
    <path
       inkscape:connector-curvature="0"
       id="path6555"
       d="m -613.0857,1010.7793 3.71265,1141.4018 259.89492,-367.4739 78.76008,-42.1617 5.90695,-683.0173 z"
       style="fill:url(#linearGradient6621);fill-opacity:1;stroke:#000000;stroke-width:1.76047421px;stroke-linecap:butt;stroke-linejoin:miter;stroke-opacity:1" />
    <path
       inkscape:connector-curvature="0"
       id="path6692"
       d="m -349.47813,1786.377 -260.5644,366.0648 -19.75074,749.4484 206.31365,2.4353 z"
       style="fill:url(#linearGradient6700);fill-opacity:1;stroke:#000000;stroke-width:1.44031096px;stroke-linecap:butt;stroke-linejoin:miter;stroke-opacity:1" />
    <text
       sodipodi:linespacing="125%"
       id="text3385"
       y="1370.1541"
       x="-216.45795"
       style="font-size:90.68684387px;font-style:italic;font-variant:normal;font-weight:normal;font-stretch:normal;text-align:start;line-height:125%;letter-spacing:0px;word-spacing:0px;writing-mode:lr-tb;text-anchor:start;fill:#00702a;fill-opacity:1;stroke:none;font-family:Sans;-inkscape-font-specification:Sans Italic"
       xml:space="preserve"><tspan
         id="tspan4340"
         y="1370.1541"
         x="-216.45795"
         sodipodi:role="line">1, y, y<tspan
   id="tspan4186"
   style="font-size:69.4837265px;font-style:italic;font-variant:normal;font-weight:normal;font-stretch:normal;text-align:start;line-height:125%;writing-mode:lr-tb;text-anchor:start;baseline-shift:super;fill:#00702a;fill-opacity:1;font-family:Sans;-inkscape-font-specification:Sans Italic">2</tspan>, y<tspan
   id="tspan4190"
   style="font-size:69.4837265px;font-style:italic;font-variant:normal;font-weight:normal;font-stretch:normal;text-align:start;line-height:125%;writing-mode:lr-tb;text-anchor:start;baseline-shift:super;fill:#00702a;fill-opacity:1;font-family:Sans;-inkscape-font-specification:Sans Italic">3</tspan>, x, xy, xy<tspan
   id="tspan4198"
   style="font-size:69.4837265px;font-style:italic;font-variant:normal;font-weight:normal;font-stretch:normal;text-align:start;line-height:125%;writing-mode:lr-tb;text-anchor:start;baseline-shift:super;fill:#00702a;fill-opacity:1;font-family:Sans;-inkscape-font-specification:Sans Italic">2</tspan>, x<tspan
   id="tspan4202"
   style="font-size:69.4837265px;font-style:italic;font-variant:normal;font-weight:normal;font-stretch:normal;text-align:start;line-height:125%;writing-mode:lr-tb;text-anchor:start;baseline-shift:super;fill:#00702a;fill-opacity:1;font-family:Sans;-inkscape-font-specification:Sans Italic">2</tspan>, x<tspan
   id="tspan4204"
   style="font-size:69.4837265px;font-style:italic;font-variant:normal;font-weight:normal;font-stretch:normal;text-align:start;line-height:125%;writing-mode:lr-tb;text-anchor:start;baseline-shift:super;fill:#00702a;fill-opacity:1;font-family:Sans;-inkscape-font-specification:Sans Italic">2</tspan>y, x<tspan
   id="tspan4200"
   style="font-size:69.4837265px;font-style:italic;font-variant:normal;font-weight:normal;font-stretch:normal;text-align:start;line-height:125%;writing-mode:lr-tb;text-anchor:start;baseline-shift:super;fill:#00702a;fill-opacity:1;font-family:Sans;-inkscape-font-specification:Sans Italic">3</tspan></tspan></text>
    <path
       inkscape:connector-curvature="0"
       id="path4163"
       d="m 895.2213,585.16795 475.2479,486.18535"
       style="fill:none;stroke:#c50000;stroke-width:20.0807991;stroke-linecap:butt;stroke-linejoin:miter;stroke-miterlimit:4;stroke-opacity:1;stroke-dasharray:none" />
    <text
       sodipodi:linespacing="125%"
       id="text3385-9"
       y="888.9137"
       x="770.87427"
       style="font-size:100.05656433px;font-style:normal;font-weight:normal;line-height:125%;letter-spacing:0px;word-spacing:0px;fill:#c50000;fill-opacity:1;stroke:none;font-family:Sans"
       xml:space="preserve"><tspan
         y="888.9137"
         x="770.87427"
         id="tspan3387-3"
         sodipodi:role="line" /></text>
    <text
       sodipodi:linespacing="125%"
       id="text3385-7"
       y="902.65125"
       x="721.59985"
       style="font-size:100.05656433px;font-style:italic;font-variant:normal;font-weight:normal;font-stretch:normal;text-align:start;line-height:125%;letter-spacing:0px;word-spacing:0px;writing-mode:lr-tb;text-anchor:start;fill:#c50000;fill-opacity:1;stroke:none;font-family:Sans;-inkscape-font-specification:Sans Italic"
       xml:space="preserve"><tspan
         y="902.65125"
         x="721.59985"
         id="tspan3387-6"
         sodipodi:role="line">1, y, y<tspan
   id="tspan4186-5"
   style="font-size:72.95790863px;font-style:italic;font-variant:normal;font-weight:normal;font-stretch:normal;text-align:start;line-height:125%;writing-mode:lr-tb;text-anchor:start;baseline-shift:super;fill:#c50000;fill-opacity:1;font-family:Sans;-inkscape-font-specification:Sans Italic">2 </tspan></tspan></text>
    <path
       sodipodi:nodetypes="cc"
       inkscape:connector-curvature="0"
       id="path5523-9-6"
       d="M 2138.4752,1050.7837 C 2144.9459,710.65268 1556.4658,359.45625 1099.1883,785.47559"
       style="fill:none;stroke:#750000;stroke-width:10.62199974;stroke-linecap:butt;stroke-linejoin:miter;stroke-miterlimit:4;stroke-opacity:1;stroke-dasharray:none;marker-start:none;marker-mid:none;marker-end:url(#Arrow2Mend-3)" />
    <text
       sodipodi:linespacing="125%"
       id="text9175"
       y="707.59821"
       x="2084.6323"
       style="font-size:144px;font-style:normal;font-weight:normal;line-height:125%;letter-spacing:0px;word-spacing:0px;fill:#000000;fill-opacity:1;stroke:none;font-family:Sans"
       xml:space="preserve"><tspan
         y="707.59821"
         x="2084.6323"
         id="tspan9177"
         sodipodi:role="line" /></text>
    <text
       sodipodi:linespacing="125%"
       id="text9179"
       y="675.59827"
       x="2144.6323"
       style="font-size:72px;font-style:normal;font-weight:normal;line-height:125%;letter-spacing:0px;word-spacing:0px;fill:#000000;fill-opacity:1;stroke:none;font-family:Sans"
       xml:space="preserve"><tspan
         y="675.59827"
         x="2144.6323"
         id="tspan9181"
         sodipodi:role="line" /></text>
    <path
       sodipodi:nodetypes="cc"
       inkscape:original-d="M 4055.9894,864.14752 2802.5595,876.22919"
       inkscape:path-effect="#path-effect9221"
       inkscape:connector-curvature="0"
       id="path9219"
       d="m 4055.9894,864.14752 -1253.4299,12.08167 m 1253.3624,-19.08134 0.135,13.99934 m -20.1003,-10.30674 0.068,6.99968 m -20.0666,-6.80691 0.068,6.99968 m -20.0665,-6.80691 0.067,6.99967 m -20.0665,-6.8069 0.067,6.99967 m -20.1003,-10.30674 0.1349,13.99935 m -20.1003,-10.30674 0.067,6.99967 m -20.0665,-6.80691 0.067,6.99968 m -20.0665,-6.80691 0.068,6.99968 m -20.0666,-6.80691 0.068,6.99968 m -20.1003,-10.30675 0.135,13.99935 m -20.1003,-10.30674 0.067,6.99967 m -20.0666,-6.8069 0.067,6.99967 m -20.0666,-6.8069 0.067,6.99967 m -20.0665,-6.8069 0.067,6.99967 m -20.1002,-10.30674 0.1349,13.99935 m -20.1003,-10.30675 0.068,6.99968 m -20.0665,-6.80691 0.067,6.99968 m -20.0665,-6.80691 0.068,6.99968 m -20.0666,-6.80691 0.068,6.99967 m -20.1003,-10.30674 0.1349,13.99935 m -20.1002,-10.30674 0.067,6.99967 m -20.0665,-6.8069 0.068,6.99967 m -20.0666,-6.80691 0.068,6.99968 m -20.0665,-6.80691 0.067,6.99968 m -20.1002,-10.30674 0.1349,13.99934 m -20.1003,-10.30674 0.068,6.99968 m -20.0666,-6.80691 0.068,6.99967 m -20.0665,-6.8069 0.067,6.99967 m -20.0665,-6.8069 0.068,6.99967 m -20.1003,-10.30674 0.1349,13.99935 m -20.1002,-10.30674 0.067,6.99967 m -20.0665,-6.80691 0.068,6.99968 m -20.0666,-6.80691 0.068,6.99968 m -20.0665,-6.80691 0.067,6.99968 m -20.1003,-10.30675 0.135,13.99935 m -20.1003,-10.30674 0.068,6.99967 m -20.0666,-6.8069 0.068,6.99967 m -20.0665,-6.8069 0.067,6.99967 m -20.0665,-6.8069 0.068,6.99967 m -20.1003,-10.30674 0.1349,13.99935 m -20.1002,-10.30675 0.067,6.99968 m -20.0665,-6.80691 0.067,6.99968 m -20.0666,-6.80691 0.067,6.99968 m -20.0666,-6.80691 0.067,6.99967 m -20.1003,-10.30674 0.135,13.99935 m -20.1003,-10.30674 0.068,6.99967 m -20.0666,-6.8069 0.068,6.99967 m -20.0665,-6.80691 0.067,6.99968 m -20.0665,-6.80691 0.067,6.99968 m -20.1003,-10.30674 0.1349,13.99934 m -20.1003,-10.30674 0.067,6.99968 m -20.0665,-6.80691 0.067,6.99967 m -20.0665,-6.8069 0.068,6.99967 m -20.0666,-6.8069 0.068,6.99967 m -20.1003,-10.30674 0.135,13.99935 m -20.1003,-10.30674 0.068,6.99967 m -20.0666,-6.80691 0.068,6.99968 m -20.0666,-6.80691 0.068,6.99968 m -20.0665,-6.80691 0.067,6.99968 m -20.1002,-10.30675 0.1349,13.99935 m -20.1003,-10.30674 0.068,6.99967 m -20.0665,-6.8069 0.067,6.99967 m -13.5887,-10.3695 0.135,13.99934"
       style="fill:none;stroke:#000000;stroke-width:4.7523737;stroke-linecap:butt;stroke-linejoin:miter;stroke-miterlimit:4;stroke-opacity:1;stroke-dasharray:none;marker-start:none;marker-mid:url(#DotS)" />
    <path
       transform="matrix(1.3944392,0,0,0.89308615,-199.881,456.9446)"
       d="m 928,457.57471 c 0,65.1696 -27.75835,118 -62,118 -34.24165,0 -62,-52.8304 -62,-118 0,-65.1696 27.75835,-118 62,-118 34.24165,0 62,52.8304 62,118 z"
       sodipodi:ry="118"
       sodipodi:rx="62"
       sodipodi:cy="457.57471"
       sodipodi:cx="866"
       id="path10371"
       style="opacity:0.82113821;fill:none;stroke:#750000;stroke-width:10.62199974;stroke-miterlimit:4;stroke-opacity:0.60550459;stroke-dasharray:none"
       sodipodi:type="arc" />
    <path
       transform="matrix(1.6581387,0,0,0.90512374,-779.31574,927.43651)"
       d="m 928,457.57471 c 0,65.1696 -27.75835,118 -62,118 -34.24165,0 -62,-52.8304 -62,-118 0,-65.1696 27.75835,-118 62,-118 34.24165,0 62,52.8304 62,118 z"
       sodipodi:ry="118"
       sodipodi:rx="62"
       sodipodi:cy="457.57471"
       sodipodi:cx="866"
       id="path10371-4"
       style="opacity:0.82113821;fill:none;stroke:#750000;stroke-width:10.62199974;stroke-miterlimit:4;stroke-opacity:0.60550459;stroke-dasharray:none"
       sodipodi:type="arc" />
    <path
       sodipodi:nodetypes="cc"
       inkscape:connector-curvature="0"
       id="path5523-9-6-4"
       d="m 756.97406,1398.2912 c 577.63174,306.1997 1539.76674,395.7895 1550.10624,-67.4471"
       style="fill:none;stroke:#00702a;stroke-width:10.62199974;stroke-linecap:butt;stroke-linejoin:miter;stroke-miterlimit:4;stroke-opacity:1;stroke-dasharray:none;marker-start:url(#Arrow2Mstart);marker-mid:none;marker-end:none" />
    <text
       sodipodi:linespacing="125%"
       id="text10466"
       y="918.35522"
       x="596.84167"
       style="font-size:144px;font-style:normal;font-weight:normal;line-height:125%;letter-spacing:0px;word-spacing:0px;fill:#000000;fill-opacity:1;stroke:none;font-family:Sans"
       xml:space="preserve"><tspan
         y="918.35522"
         x="596.84167"
         id="tspan10468"
         sodipodi:role="line" /></text>
    <text
       sodipodi:linespacing="125%"
       id="text10958"
       y="828.75281"
       x="2769.1489"
       style="font-size:167.6998291px;font-style:normal;font-weight:normal;line-height:125%;letter-spacing:0px;word-spacing:0px;fill:#000000;fill-opacity:1;stroke:none;font-family:Sans"
       xml:space="preserve"
       transform="scale(0.99988661,1.0001134)"><tspan
         y="828.75281"
         x="2769.1489"
         id="tspan10960"
         sodipodi:role="line">1<tspan
   id="tspan10962"
   style="font-size:139.74984741px">,</tspan><tspan
   id="tspan10964"
   style="font-size:93.16657257px"><tspan
   id="tspan10968"
   style="font-size:110.63529968px">2</tspan>,</tspan><tspan
   id="tspan10966"
   style="font-size:69.87492371px">3,</tspan>...</tspan></text>
    <text
       sodipodi:linespacing="125%"
       id="text11774"
       y="824.7467"
       x="3303.9602"
       style="font-size:90.00000013px;font-style:normal;font-weight:normal;line-height:125%;letter-spacing:0px;word-spacing:0px;fill:#000000;fill-opacity:1;stroke:none;font-family:Sans"
       xml:space="preserve"
       transform="scale(0.99988661,1.0001134)"><tspan
         y="824.7467"
         x="3303.9602"
         id="tspan11776"
         sodipodi:role="line">basis enumeration</tspan></text>
    <path
       sodipodi:nodetypes="cc"
       inkscape:original-d="m 4069.287,1484.3319 -1257.1153,12.0817"
       inkscape:path-effect="#path-effect9221-4"
       inkscape:connector-curvature="0"
       id="path9219-3"
       d="m 4069.287,1484.3319 -1257.1153,12.0817 m 1257.048,-19.0814 0.1346,13.9994 m -20.1,-10.3073 0.067,6.9996 m -20.0664,-6.8074 0.067,6.9996 m -20.0664,-6.8074 0.067,6.9997 m -20.0663,-6.8075 0.067,6.9997 m -20.1,-10.3074 0.1346,13.9994 m -20.1,-10.3073 0.067,6.9997 m -20.0664,-6.8075 0.067,6.9997 m -20.0663,-6.8075 0.067,6.9997 m -20.0663,-6.8075 0.067,6.9997 m -20.0999,-10.3073 0.1345,13.9993 m -20.1,-10.3073 0.067,6.9997 m -20.0664,-6.8075 0.067,6.9997 m -20.0663,-6.8075 0.067,6.9997 m -20.0663,-6.8075 0.067,6.9997 m -20.1,-10.3073 0.1345,13.9993 m -20.1,-10.3073 0.067,6.9997 m -20.0663,-6.8075 0.067,6.9997 m -20.0663,-6.8075 0.067,6.9997 m -20.0664,-6.8075 0.067,6.9997 m -20.1,-10.3073 0.1345,13.9994 m -20.0999,-10.3074 0.067,6.9997 m -20.0663,-6.8074 0.067,6.9996 m -20.0664,-6.8074 0.067,6.9996 m -20.0664,-6.8074 0.067,6.9996 m -20.1,-10.3073 0.1346,13.9994 m -20.1,-10.3073 0.067,6.9996 m -20.0663,-6.8074 0.067,6.9997 m -20.0664,-6.8075 0.067,6.9997 m -20.0664,-6.8075 0.067,6.9997 m -20.1,-10.3074 0.1346,13.9994 m -20.1,-10.3073 0.067,6.9997 m -20.0664,-6.8075 0.067,6.9997 m -20.0664,-6.8075 0.067,6.9997 m -20.0663,-6.8075 0.067,6.9997 m -20.0999,-10.3073 0.1345,13.9993 m -20.1,-10.3073 0.067,6.9997 m -20.0664,-6.8075 0.067,6.9997 m -20.0663,-6.8075 0.067,6.9997 m -20.0663,-6.8075 0.067,6.9997 m -20.1,-10.3073 0.1345,13.9993 m -20.1,-10.3073 0.067,6.9997 m -20.0663,-6.8075 0.067,6.9997 m -20.0663,-6.8075 0.067,6.9997 m -20.0663,-6.8075 0.067,6.9997 m -20.1,-10.3073 0.1345,13.9994 m -20.1,-10.3073 0.067,6.9996 m -20.0663,-6.8074 0.067,6.9996 m -20.0663,-6.8074 0.067,6.9996 m -20.0664,-6.8074 0.067,6.9996 m -20.1,-10.3073 0.1346,13.9994 m -20.1,-10.3073 0.067,6.9997 m -20.0663,-6.8075 0.067,6.9997 m -20.0664,-6.8075 0.067,6.9997 m -20.0664,-6.8075 0.067,6.9997 m -20.1,-10.3073 0.1346,13.9993 m -20.1,-10.3073 0.067,6.9997 m -20.0664,-6.8075 0.067,6.9997 m -20.0664,-6.8075 0.067,6.9997 m -20.0663,-6.8075 0.067,6.9997 m -20.1,-10.3073 0.1346,13.9993 m -20.1,-10.3073 0.067,6.9997 m -20.0664,-6.8075 0.067,6.9997 m -17.2735,-10.3345 0.1346,13.9994"
       style="fill:none;stroke:#000000;stroke-width:4.7523737;stroke-linecap:butt;stroke-linejoin:miter;stroke-miterlimit:4;stroke-opacity:1;stroke-dasharray:none;marker-start:none;marker-mid:url(#DotS)" />
    <path
       sodipodi:nodetypes="cc"
       inkscape:connector-curvature="0"
       id="path3449-5"
       d="m 2811.4411,1473.0629 c 0,-184.2365 25.0606,-398.5282 25.0606,-582.76475"
       style="fill:none;stroke:#000000;stroke-width:2.69999981;stroke-linecap:butt;stroke-linejoin:miter;stroke-miterlimit:4;stroke-opacity:1;stroke-dasharray:2.69999986, 2.69999986;stroke-dashoffset:0" />
    <path
       sodipodi:nodetypes="cc"
       inkscape:connector-curvature="0"
       id="path3449-5-9"
       d="m 2810.876,1475.6007 c 0,-184.2365 53.4187,-399.4283 53.4187,-583.66483"
       style="fill:none;stroke:#000000;stroke-width:2.69999981;stroke-linecap:butt;stroke-linejoin:miter;stroke-miterlimit:4;stroke-opacity:1;stroke-dasharray:2.69999986, 2.69999986;stroke-dashoffset:0" />
    <path
       sodipodi:nodetypes="cc"
       inkscape:connector-curvature="0"
       id="path3449-5-9-1"
       d="m 2811.2056,1472.9862 c 0,-184.2366 78.1499,-402.4779 78.1499,-586.71446"
       style="fill:none;stroke:#000000;stroke-width:2.69999981;stroke-linecap:butt;stroke-linejoin:miter;stroke-miterlimit:4;stroke-opacity:1;stroke-dasharray:2.69999986, 2.69999986;stroke-dashoffset:0" />
    <path
       sodipodi:nodetypes="cc"
       inkscape:connector-curvature="0"
       id="path3449-5-9-1-8"
       d="m 2811.1113,1471.8617 c 0,-184.2366 102.1727,-401.4733 102.1727,-585.7099"
       style="fill:none;stroke:#000000;stroke-width:2.69999981;stroke-linecap:butt;stroke-linejoin:miter;stroke-miterlimit:4;stroke-opacity:1;stroke-dasharray:2.69999986, 2.69999986;stroke-dashoffset:0" />
    <path
       sodipodi:nodetypes="cc"
       inkscape:connector-curvature="0"
       id="path3449-5-9-1-8-0"
       d="m 2811.045,1473.4161 c 0,-184.2365 129.2861,-402.8913 129.2861,-587.1278"
       style="fill:none;stroke:#000000;stroke-width:2.69999981;stroke-linecap:butt;stroke-linejoin:miter;stroke-miterlimit:4;stroke-opacity:1;stroke-dasharray:2.69999986, 2.69999986;stroke-dashoffset:0" />
    <path
       sodipodi:nodetypes="cc"
       inkscape:connector-curvature="0"
       id="path3449-5-9-1-8-0-7"
       d="m 2811.6577,1473.3462 c 0,-184.2366 155.7208,-403.3674 155.7208,-587.6039"
       style="fill:none;stroke:#000000;stroke-width:2.69999981;stroke-linecap:butt;stroke-linejoin:miter;stroke-miterlimit:4;stroke-opacity:1;stroke-dasharray:2.69999986, 2.69999986;stroke-dashoffset:0" />
    <path
       sodipodi:nodetypes="cc"
       inkscape:connector-curvature="0"
       id="path3449-6"
       d="m 2806.6585,892.76804 c 0,184.23646 3.9568,399.65976 3.9568,583.89636"
       style="fill:none;stroke:#000000;stroke-width:2.69999981;stroke-linecap:butt;stroke-linejoin:miter;stroke-miterlimit:4;stroke-opacity:1;stroke-dasharray:2.69999989, 2.69999989;stroke-dashoffset:0" />
    <path
       sodipodi:nodetypes="cc"
       inkscape:connector-curvature="0"
       id="path3449-5-90"
       d="m 2807.8322,890.64233 c 0,184.23657 30.7917,403.80627 30.7917,588.04287"
       style="fill:none;stroke:#000000;stroke-width:2.69999981;stroke-linecap:butt;stroke-linejoin:miter;stroke-miterlimit:4;stroke-opacity:1;stroke-dasharray:2.69999989, 2.69999989;stroke-dashoffset:0" />
    <path
       sodipodi:nodetypes="cc"
       inkscape:connector-curvature="0"
       id="path3449-5-9-4"
       d="m 2805.983,892.7228 c 0,184.2366 61.1191,400.088 61.1191,584.3247"
       style="fill:none;stroke:#000000;stroke-width:2.69999981;stroke-linecap:butt;stroke-linejoin:miter;stroke-miterlimit:4;stroke-opacity:1;stroke-dasharray:2.69999989, 2.69999989;stroke-dashoffset:0" />
    <path
       sodipodi:nodetypes="cc"
       inkscape:connector-curvature="0"
       id="path3449-5-9-1-2"
       d="m 2807.2695,891.7087 c 0,184.2365 85.5111,406.7663 85.5111,591.0028"
       style="fill:none;stroke:#000000;stroke-width:2.69999981;stroke-linecap:butt;stroke-linejoin:miter;stroke-miterlimit:4;stroke-opacity:1;stroke-dasharray:2.69999989, 2.69999989;stroke-dashoffset:0" />
    <path
       sodipodi:nodetypes="cc"
       inkscape:connector-curvature="0"
       id="path3449-5-9-1-8-3"
       d="m 2805.7561,892.00844 c 0,184.23656 111.5428,406.58656 111.5428,590.82306"
       style="fill:none;stroke:#000000;stroke-width:2.69999981;stroke-linecap:butt;stroke-linejoin:miter;stroke-miterlimit:4;stroke-opacity:1;stroke-dasharray:2.69999989, 2.69999989;stroke-dashoffset:0" />
    <path
       sodipodi:nodetypes="cc"
       inkscape:connector-curvature="0"
       id="path3449-5-9-1-8-0-0"
       d="m 2807.0235,890.61904 c 0,184.23656 137.9893,407.83926 137.9893,592.07606"
       style="fill:none;stroke:#000000;stroke-width:2.69999981;stroke-linecap:butt;stroke-linejoin:miter;stroke-miterlimit:4;stroke-opacity:1;stroke-dasharray:2.69999989, 2.69999989;stroke-dashoffset:0" />
    <path
       sodipodi:nodetypes="cc"
       inkscape:connector-curvature="0"
       id="path3449-5-9-1-8-0-7-6"
       d="m 2807.0081,889.36941 c 0,184.23649 165.7186,409.63499 165.7186,593.87149"
       style="fill:none;stroke:#000000;stroke-width:2.69999981;stroke-linecap:butt;stroke-linejoin:miter;stroke-miterlimit:4;stroke-opacity:1;stroke-dasharray:2.69999989, 2.69999989;stroke-dashoffset:0" />
    <text
       sodipodi:linespacing="0%"
       id="text4416"
       y="1184.8496"
       x="2951.0122"
       style="font-size:131.92495728px;font-style:normal;font-variant:normal;font-weight:normal;font-stretch:normal;line-height:0%;letter-spacing:0px;word-spacing:0px;fill:#000000;fill-opacity:1;stroke:none;font-family:Utopia;-inkscape-font-specification:Utopia"
       xml:space="preserve"
       transform="scale(0.99979917,1.0002009)"><tspan
         y="1184.8496"
         x="2951.0122"
         id="tspan4418"
         sodipodi:role="line">...</tspan></text>
    <g
       id="g4540"
       transform="matrix(1.9599914,0,0,1.960779,1874.3206,-1584.9589)">
      <g
         word-spacing="normal"
         letter-spacing="normal"
         font-size-adjust="none"
         font-stretch="normal"
         font-weight="normal"
         font-variant="normal"
         font-style="normal"
         stroke-miterlimit="10.433"
         xml:space="preserve"
         transform="matrix(2.6827897,0,0,-2.6827897,-469.4882,2524.6062)"
         id="content"
         style="font-style:normal;font-variant:normal;font-weight:normal;font-stretch:normal;letter-spacing:normal;word-spacing:normal;text-anchor:start;fill:none;stroke:#000000;stroke-width:0.51010388;stroke-linecap:butt;stroke-linejoin:miter;stroke-miterlimit:10.43299961;stroke-opacity:1;stroke-dasharray:none;stroke-dashoffset:0"><path
           id="path4543"
           d="m 474.89,420.04 -9.95,9.92 c -0.61,0.6 -0.7,0.71 -1.11,0.71 -0.48,0 -0.98,-0.46 -0.98,-1 0,-0.36 0.09,-0.46 0.64,-1 l 9.97,-10.02 -9.97,-10.01 c -0.55,-0.55 -0.64,-0.64 -0.64,-1 0,-0.55 0.5,-0.99 0.98,-0.99 0.41,0 0.5,0.1 1.11,0.69 l 9.91,9.92 10.31,-10.31 c 0.11,-0.05 0.45,-0.3 0.75,-0.3 0.59,0 1,0.44 1,0.99 0,0.11 0,0.31 -0.16,0.56 -0.04,0.09 -7.96,7.92 -10.45,10.45 l 9.11,9.13 c 0.25,0.29 1,0.93 1.25,1.23 0.05,0.11 0.25,0.3 0.25,0.66 0,0.54 -0.41,1 -1,1 -0.39,0 -0.59,-0.21 -1.14,-0.75 z"
           inkscape:connector-curvature="0"
           style="fill:#000000;stroke-width:0" /></g>    </g>
    <path
       style="opacity:0.64634142;fill:#000000;fill-opacity:1;stroke:#000000;stroke-width:35.79999924;stroke-linecap:butt;stroke-linejoin:miter;stroke-miterlimit:4;stroke-opacity:1;stroke-dasharray:none;marker-start:url(#Arrow2Sstart)"
       d="m 2484.3424,1182.9434 243.2448,0 0,0"
       id="path4662"
       inkscape:connector-curvature="0"
       inkscape:transform-center-x="50.911687"
       inkscape:transform-center-y="299.81327" />
    <text
       xml:space="preserve"
       style="font-size:238.57644653px;font-style:normal;font-variant:normal;font-weight:normal;font-stretch:normal;line-height:0%;letter-spacing:0px;word-spacing:0px;fill:#000000;fill-opacity:1;stroke:none;font-family:Utopia;-inkscape-font-specification:Utopia"
       x="2020.9236"
       y="1257.5065"
       id="text5720"
       sodipodi:linespacing="0%"><tspan
         sodipodi:role="line"
         id="tspan5722"
         x="2020.9236"
         y="1257.5065">(i, j)</tspan></text>
    <text
       xml:space="preserve"
       style="font-size:90px;font-style:normal;font-variant:normal;font-weight:normal;font-stretch:normal;line-height:858.00008774%;letter-spacing:0px;word-spacing:0px;fill:#000000;fill-opacity:1;stroke:none;font-family:Monospace;-inkscape-font-specification:Monospace"
       x="1374.4204"
       y="748.26074"
       id="text6924-5"
       sodipodi:linespacing="858.00009%"><tspan
         sodipodi:role="line"
         id="tspan6926-8"
         x="1374.4204"
         y="748.26074"><tspan
           style="line-height:858.00008774%;fill:#0000ff"
           id="tspan7006">basis</tspan></tspan></text>
    <text
       xml:space="preserve"
       style="font-size:90px;font-style:normal;font-variant:normal;font-weight:normal;font-stretch:normal;line-height:858.00008774%;letter-spacing:0px;word-spacing:0px;fill:#000000;fill-opacity:1;stroke:none;font-family:Monospace;-inkscape-font-specification:Monospace"
       x="1477.9445"
       y="1591.1321"
       id="text6924-5-2"
       sodipodi:linespacing="858.00009%"><tspan
         sodipodi:role="line"
         id="tspan6926-8-7"
         x="1477.9445"
         y="1591.1321"><tspan
           style="line-height:858.00008774%;fill:#0000ff"
           id="tspan7006-5">basis</tspan></tspan></text>
    <path
       style="fill:#0000ff;stroke:#0000d1;stroke-width:10.60000038;stroke-linecap:butt;stroke-linejoin:miter;stroke-miterlimit:4;stroke-opacity:1;stroke-dasharray:none"
       d="M 953.22346,949.46806 711.393,1243.6245"
       id="path8239"
       inkscape:connector-curvature="0"
       sodipodi:nodetypes="cc" />
    <path
       transform="matrix(2.0479967,0,0,0.61748709,-936.30722,811.17136)"
       d="m 928,457.57471 c 0,65.1696 -27.75835,118 -62,118 -34.24165,0 -62,-52.8304 -62,-118 0,-65.1696 27.75835,-118 62,-118 34.24165,0 62,52.8304 62,118 z"
       sodipodi:ry="118"
       sodipodi:rx="62"
       sodipodi:cy="457.57471"
       sodipodi:cx="866"
       id="path10371-4-1"
       style="fill:#e6e6e6;fill-opacity:1;stroke:#750000;stroke-width:11.57156563;stroke-miterlimit:4;stroke-opacity:0.60550459;stroke-dasharray:none"
       sodipodi:type="arc"
       inkscape:transform-center-x="-226.27416" />
    <text
       xml:space="preserve"
       style="font-size:105.48525238px;font-style:normal;font-variant:normal;font-weight:normal;font-stretch:normal;line-height:1000%;letter-spacing:0px;word-spacing:0px;fill:#0000ff;fill-opacity:1;stroke:none;font-family:Liberation Mono;-inkscape-font-specification:Liberation Mono"
       x="738.27136"
       y="1128.592"
       id="text8080-7"
       sodipodi:linespacing="1000%"><tspan
         sodipodi:role="line"
         id="tspan8082-3"
         x="738.27136"
         y="1128.592">vbf</tspan></text>
    <text
       sodipodi:linespacing="125%"
       id="text10958-8"
       y="1661.3159"
       x="2782.3726"
       style="font-size:167.6998291px;font-style:normal;font-weight:normal;line-height:125%;letter-spacing:0px;word-spacing:0px;fill:#000000;fill-opacity:1;stroke:none;font-family:Sans"
       xml:space="preserve"
       transform="scale(0.99988661,1.0001134)"><tspan
         y="1661.3159"
         x="2782.3726"
         id="tspan10960-1"
         sodipodi:role="line">1<tspan
   id="tspan10962-4"
   style="font-size:139.74984741px">,</tspan><tspan
   id="tspan10964-5"
   style="font-size:93.16657257px"><tspan
   id="tspan10968-1"
   style="font-size:110.63529968px">2</tspan>,</tspan><tspan
   id="tspan10966-6"
   style="font-size:69.87492371px">3,</tspan>...</tspan></text>
    <text
       sodipodi:linespacing="125%"
       id="text11774-7"
       y="1657.3098"
       x="3317.1838"
       style="font-size:90px;font-style:normal;font-weight:normal;line-height:125%;letter-spacing:0px;word-spacing:0px;fill:#000000;fill-opacity:1;stroke:none;font-family:Sans"
       xml:space="preserve"
       transform="scale(0.99988661,1.0001134)"><tspan
         y="1657.3098"
         x="3317.1838"
         id="tspan11776-7"
         sodipodi:role="line">basis enumeration</tspan></text>
  </g>
</svg>
